<svg xmlns="http://www.w3.org/2000/svg" width="1500" height="1168" viewBox="0 0 1500 1168" font-family="Helvetica, Arial, sans-serif">
<rect width="1500" height="1168" fill="#FFFFFF"/>
<text x="40.0" y="42.0" font-size="22" fill="#1F2937" text-anchor="start" font-weight="bold">Heater cutoff board: complete wiring</text>
<text x="40.0" y="66.0" font-size="13" fill="#6B7280" text-anchor="start" font-weight="normal">K1 closes only while PERMIT (GPIO25) is high AND HEARTBEAT (GPIO23) keeps toggling. Every +5V tag joins the ESP32 5V/VIN pin; every GND tag joins ESP32 GND.</text>
<rect x="30" y="90" width="1240" height="680" rx="12" fill="#F9FAFB" stroke="#D1D5DB" stroke-width="1.5"/>
<text x="46.0" y="112.0" font-size="12" fill="#6B7280" text-anchor="start" font-weight="bold">LOW VOLTAGE (5 V) · protoboard</text>
<rect x="1290" y="90" width="185" height="680" rx="12" fill="#FEF2F2" stroke="#B91C1C" stroke-width="1.5" stroke-dasharray="8,5"/>
<text x="1306.0" y="112.0" font-size="12" fill="#B91C1C" text-anchor="start" font-weight="bold">MAINS 120 V AC</text>
<text x="1306.0" y="128.0" font-size="10" fill="#B91C1C" text-anchor="start" font-weight="normal">≥ 6 mm from low-voltage</text>
<polyline points="1220,300 1324,300" fill="none" stroke="#1D4ED8" stroke-width="1.5" stroke-linejoin="round" stroke-linecap="round" stroke-dasharray="6,5"/>
<rect x="1030" y="300" width="170" height="100" rx="4" fill="#FFFFFF" fill-opacity="1" stroke="#93C5FD" stroke-width="1.5" stroke-dasharray="4,3"/>
<polyline points="220,360 500,360" fill="none" stroke="#D97706" stroke-width="2.5" stroke-linejoin="round" stroke-linecap="round"/>
<text x="400.0" y="352.0" font-size="10.5" fill="#D97706" text-anchor="middle" font-weight="bold">HEARTBEAT</text>
<polyline points="220,480 460,480 460,400 500,400" fill="none" stroke="#2563EB" stroke-width="2.5" stroke-linejoin="round" stroke-linecap="round"/>
<text x="290.0" y="472.0" font-size="10.5" fill="#2563EB" text-anchor="middle" font-weight="bold">PERMIT</text>
<polyline points="670,320 800,320" fill="none" stroke="#DC2626" stroke-width="2.5" stroke-linejoin="round" stroke-linecap="round"/>
<polyline points="670,360 760,360" fill="none" stroke="#7C3AED" stroke-width="2.5" stroke-linejoin="round" stroke-linecap="round"/>
<polyline points="670,400 720,400" fill="none" stroke="#7C3AED" stroke-width="2.5" stroke-linejoin="round" stroke-linecap="round"/>
<polyline points="670,440 990,440" fill="none" stroke="#C026D3" stroke-width="2.5" stroke-linejoin="round" stroke-linecap="round"/>
<text x="735.0" y="432.0" font-size="10.5" fill="#C026D3" text-anchor="middle" font-weight="bold">1Q = RELAY ON</text>
<polyline points="800,540 770,540 770,700 220,700" fill="none" stroke="#059669" stroke-width="2.5" stroke-linejoin="round" stroke-linecap="round"/>
<text x="480.0" y="692.0" font-size="10.5" fill="#059669" text-anchor="middle" font-weight="bold">FEEDBACK (≈3.3 V when K1 is on)</text>
<polyline points="1330,200 1330,300" fill="none" stroke="#B91C1C" stroke-width="3" stroke-linejoin="round" stroke-linecap="round"/>
<polyline points="1410,270 1450,270 1450,430" fill="none" stroke="#B91C1C" stroke-width="3" stroke-linejoin="round" stroke-linecap="round"/>
<polyline points="1385,540 1385,580" fill="none" stroke="#B91C1C" stroke-width="3" stroke-linejoin="round" stroke-linecap="round"/>
<rect x="60" y="250" width="140" height="510" rx="10" fill="#F1EFE8" stroke="#5F5E5A" stroke-width="1.5"/>
<polyline points="200,330 220,330" fill="none" stroke="#1F2937" stroke-width="2" stroke-linejoin="round" stroke-linecap="round"/>
<text x="192.0" y="334.0" font-size="11" fill="#1F2937" text-anchor="end" font-weight="bold">5V / VIN</text>
<polyline points="200,360 220,360" fill="none" stroke="#1F2937" stroke-width="2" stroke-linejoin="round" stroke-linecap="round"/>
<text x="192.0" y="364.0" font-size="11" fill="#1F2937" text-anchor="end" font-weight="bold">GPIO23</text>
<polyline points="200,480 220,480" fill="none" stroke="#1F2937" stroke-width="2" stroke-linejoin="round" stroke-linecap="round"/>
<text x="192.0" y="484.0" font-size="11" fill="#1F2937" text-anchor="end" font-weight="bold">GPIO25</text>
<polyline points="200,700 220,700" fill="none" stroke="#1F2937" stroke-width="2" stroke-linejoin="round" stroke-linecap="round"/>
<text x="192.0" y="704.0" font-size="11" fill="#1F2937" text-anchor="end" font-weight="bold">GPIO34</text>
<polyline points="200,740 220,740" fill="none" stroke="#1F2937" stroke-width="2" stroke-linejoin="round" stroke-linecap="round"/>
<text x="192.0" y="744.0" font-size="11" fill="#1F2937" text-anchor="end" font-weight="bold">GND</text>
<text x="130.0" y="270.0" font-size="13" fill="#1F2937" text-anchor="middle" font-weight="bold">ESP32</text>
<text x="130.0" y="286.0" font-size="10" fill="#6B7280" text-anchor="middle" font-weight="normal">dev board</text>
<rect x="520" y="300" width="130" height="330" rx="6" fill="#FCE7F3" stroke="#9D174D" stroke-width="2"/>
<path d="M573.0,300 A12,12 0 0,0 597.0,300" fill="#FFFFFF" stroke="#9D174D" stroke-width="2"/>
<circle cx="534" cy="316" r="4" fill="#9D174D"/>
<polyline points="500,320 520,320" fill="none" stroke="#1F2937" stroke-width="2" stroke-linejoin="round" stroke-linecap="round"/>
<text x="526.0" y="324.0" font-size="10" fill="#9D174D" text-anchor="start" font-weight="bold">1</text>
<text x="542.0" y="324.0" font-size="11" fill="#1F2937" text-anchor="start" font-weight="normal">1A</text>
<polyline points="500,360 520,360" fill="none" stroke="#1F2937" stroke-width="2" stroke-linejoin="round" stroke-linecap="round"/>
<text x="526.0" y="364.0" font-size="10" fill="#9D174D" text-anchor="start" font-weight="bold">2</text>
<text x="542.0" y="364.0" font-size="11" fill="#1F2937" text-anchor="start" font-weight="normal">1B</text>
<polyline points="500,400 520,400" fill="none" stroke="#1F2937" stroke-width="2" stroke-linejoin="round" stroke-linecap="round"/>
<text x="526.0" y="404.0" font-size="10" fill="#9D174D" text-anchor="start" font-weight="bold">3</text>
<text x="542.0" y="404.0" font-size="11" fill="#1F2937" text-anchor="start" font-weight="normal">1CLR̅</text>
<polyline points="500,440 520,440" fill="none" stroke="#9CA3AF" stroke-width="2" stroke-linejoin="round" stroke-linecap="round"/>
<text x="526.0" y="444.0" font-size="10" fill="#9D174D" text-anchor="start" font-weight="bold">4</text>
<text x="542.0" y="444.0" font-size="11" fill="#1F2937" text-anchor="start" font-weight="normal">1Q̅</text>
<polyline points="500,480 520,480" fill="none" stroke="#9CA3AF" stroke-width="2" stroke-linejoin="round" stroke-linecap="round"/>
<text x="526.0" y="484.0" font-size="10" fill="#9D174D" text-anchor="start" font-weight="bold">5</text>
<text x="542.0" y="484.0" font-size="11" fill="#1F2937" text-anchor="start" font-weight="normal">2Q</text>
<polyline points="500,520 520,520" fill="none" stroke="#9CA3AF" stroke-width="2" stroke-linejoin="round" stroke-linecap="round"/>
<text x="526.0" y="524.0" font-size="10" fill="#9D174D" text-anchor="start" font-weight="bold">6</text>
<text x="542.0" y="524.0" font-size="11" fill="#1F2937" text-anchor="start" font-weight="normal">2Cext</text>
<polyline points="500,560 520,560" fill="none" stroke="#9CA3AF" stroke-width="2" stroke-linejoin="round" stroke-linecap="round"/>
<text x="526.0" y="564.0" font-size="10" fill="#9D174D" text-anchor="start" font-weight="bold">7</text>
<text x="542.0" y="564.0" font-size="11" fill="#1F2937" text-anchor="start" font-weight="normal">2Rx/Cx</text>
<polyline points="500,600 520,600" fill="none" stroke="#1F2937" stroke-width="2" stroke-linejoin="round" stroke-linecap="round"/>
<text x="526.0" y="604.0" font-size="10" fill="#9D174D" text-anchor="start" font-weight="bold">8</text>
<text x="542.0" y="604.0" font-size="11" fill="#1F2937" text-anchor="start" font-weight="normal">GND</text>
<polyline points="650,320 670,320" fill="none" stroke="#1F2937" stroke-width="2" stroke-linejoin="round" stroke-linecap="round"/>
<text x="644.0" y="324.0" font-size="10" fill="#9D174D" text-anchor="end" font-weight="bold">16</text>
<text x="628.0" y="324.0" font-size="11" fill="#1F2937" text-anchor="end" font-weight="normal">VCC</text>
<polyline points="650,360 670,360" fill="none" stroke="#1F2937" stroke-width="2" stroke-linejoin="round" stroke-linecap="round"/>
<text x="644.0" y="364.0" font-size="10" fill="#9D174D" text-anchor="end" font-weight="bold">15</text>
<text x="628.0" y="364.0" font-size="11" fill="#1F2937" text-anchor="end" font-weight="normal">1Rx/Cx</text>
<polyline points="650,400 670,400" fill="none" stroke="#1F2937" stroke-width="2" stroke-linejoin="round" stroke-linecap="round"/>
<text x="644.0" y="404.0" font-size="10" fill="#9D174D" text-anchor="end" font-weight="bold">14</text>
<text x="628.0" y="404.0" font-size="11" fill="#1F2937" text-anchor="end" font-weight="normal">1Cext</text>
<polyline points="650,440 670,440" fill="none" stroke="#1F2937" stroke-width="2" stroke-linejoin="round" stroke-linecap="round"/>
<text x="644.0" y="444.0" font-size="10" fill="#9D174D" text-anchor="end" font-weight="bold">13</text>
<text x="628.0" y="444.0" font-size="11" fill="#1F2937" text-anchor="end" font-weight="normal">1Q</text>
<polyline points="650,480 670,480" fill="none" stroke="#9CA3AF" stroke-width="2" stroke-linejoin="round" stroke-linecap="round"/>
<text x="644.0" y="484.0" font-size="10" fill="#9D174D" text-anchor="end" font-weight="bold">12</text>
<text x="628.0" y="484.0" font-size="11" fill="#1F2937" text-anchor="end" font-weight="normal">2Q̅</text>
<polyline points="650,520 670,520" fill="none" stroke="#1F2937" stroke-width="2" stroke-linejoin="round" stroke-linecap="round"/>
<text x="644.0" y="524.0" font-size="10" fill="#9D174D" text-anchor="end" font-weight="bold">11</text>
<text x="628.0" y="524.0" font-size="11" fill="#1F2937" text-anchor="end" font-weight="normal">2CLR̅</text>
<polyline points="650,560 670,560" fill="none" stroke="#1F2937" stroke-width="2" stroke-linejoin="round" stroke-linecap="round"/>
<text x="644.0" y="564.0" font-size="10" fill="#9D174D" text-anchor="end" font-weight="bold">10</text>
<text x="628.0" y="564.0" font-size="11" fill="#1F2937" text-anchor="end" font-weight="normal">2B</text>
<polyline points="650,600 670,600" fill="none" stroke="#1F2937" stroke-width="2" stroke-linejoin="round" stroke-linecap="round"/>
<text x="644.0" y="604.0" font-size="10" fill="#9D174D" text-anchor="end" font-weight="bold">9</text>
<text x="628.0" y="604.0" font-size="11" fill="#1F2937" text-anchor="end" font-weight="normal">2A</text>
<text x="585.0" y="652.0" font-size="13" fill="#1F2937" text-anchor="middle" font-weight="bold">U1  CD74HCT123E</text>
<text x="585.0" y="668.0" font-size="10" fill="#6B7280" text-anchor="middle" font-weight="normal">top view · dot/notch = pin 1 · use a socket</text>
<g transform="translate(320,360) rotate(90.0)"><polyline points="0.0,0 16.0,0 20.0,-8 28.0,8 36.0,-8 44.0,8 52.0,-8 60.0,8 64.0,0 80.0,0" fill="none" stroke="#D97706" stroke-width="2.5" stroke-linejoin="round"/></g>
<text x="334.0" y="398.0" font-size="12" fill="#1F2937" text-anchor="start" font-weight="bold">R1</text>
<text x="334.0" y="413.0" font-size="11" fill="#6B7280" text-anchor="start" font-weight="normal">10k</text>
<g transform="translate(380,480) rotate(90.0)"><polyline points="0.0,0 16.0,0 20.0,-8 28.0,8 36.0,-8 44.0,8 52.0,-8 60.0,8 64.0,0 80.0,0" fill="none" stroke="#2563EB" stroke-width="2.5" stroke-linejoin="round"/></g>
<text x="394.0" y="518.0" font-size="12" fill="#1F2937" text-anchor="start" font-weight="bold">R2</text>
<text x="394.0" y="533.0" font-size="11" fill="#6B7280" text-anchor="start" font-weight="normal">10k</text>
<g transform="translate(700,320) rotate(-90.0)"><line x1="0" y1="0" x2="30.0" y2="0" stroke="#DC2626" stroke-width="2.5"/><line x1="40.0" y1="0" x2="70.0" y2="0" stroke="#DC2626" stroke-width="2.5"/><line x1="30.0" y1="-14" x2="30.0" y2="14" stroke="#1F2937" stroke-width="3"/>
<line x1="40.0" y1="-14" x2="40.0" y2="14" stroke="#1F2937" stroke-width="3"/></g>
<text x="682.0" y="283.0" font-size="12" fill="#1F2937" text-anchor="end" font-weight="bold">C1</text>
<text x="682.0" y="298.0" font-size="11" fill="#6B7280" text-anchor="end" font-weight="normal">100 nF</text>
<g transform="translate(760,360) rotate(0.0)"><polyline points="0.0,0 18.0,0 22.5,-8 31.5,8 40.5,-8 49.5,8 58.5,-8 67.5,8 72.0,0 90.0,0" fill="none" stroke="#7C3AED" stroke-width="2.5" stroke-linejoin="round"/></g>
<text x="805.0" y="344.0" font-size="12" fill="#1F2937" text-anchor="middle" font-weight="bold">R3  1 MΩ 1%</text>
<g transform="translate(720,400) rotate(-90.0)"><line x1="0" y1="0" x2="15.0" y2="0" stroke="#7C3AED" stroke-width="2.5"/><line x1="25.0" y1="0" x2="40.0" y2="0" stroke="#7C3AED" stroke-width="2.5"/><line x1="15.0" y1="-14" x2="15.0" y2="14" stroke="#1F2937" stroke-width="3"/>
<line x1="25.0" y1="-14" x2="25.0" y2="14" stroke="#1F2937" stroke-width="3"/></g>
<text x="736.0" y="384.0" font-size="12" fill="#1F2937" text-anchor="start" font-weight="bold">C2</text>
<text x="736.0" y="399.0" font-size="11" fill="#6B7280" text-anchor="start" font-weight="normal">4.7 µF film</text>
<g transform="translate(900,440) rotate(90.0)"><polyline points="0.0,0 18.0,0 22.5,-8 31.5,8 40.5,-8 49.5,8 58.5,-8 67.5,8 72.0,0 90.0,0" fill="none" stroke="#C026D3" stroke-width="2.5" stroke-linejoin="round"/></g>
<text x="886.0" y="483.0" font-size="12" fill="#1F2937" text-anchor="end" font-weight="bold">R4</text>
<text x="886.0" y="498.0" font-size="11" fill="#6B7280" text-anchor="end" font-weight="normal">100k</text>
<g transform="translate(800,440) rotate(90.0)"><polyline points="0.0,0 20.0,0 25.0,-8 35.0,8 45.0,-8 55.0,8 65.0,-8 75.0,8 80.0,0 100.0,0" fill="none" stroke="#C026D3" stroke-width="2.5" stroke-linejoin="round"/></g>
<text x="814.0" y="488.0" font-size="12" fill="#1F2937" text-anchor="start" font-weight="bold">R5</text>
<text x="814.0" y="503.0" font-size="11" fill="#6B7280" text-anchor="start" font-weight="normal">10k</text>
<g transform="translate(800,540) rotate(90.0)"><polyline points="0.0,0 14.0,0 17.5,-8 24.5,8 31.5,-8 38.5,8 45.5,-8 52.5,8 56.0,0 70.0,0" fill="none" stroke="#059669" stroke-width="2.5" stroke-linejoin="round"/></g>
<text x="814.0" y="573.0" font-size="12" fill="#1F2937" text-anchor="start" font-weight="bold">R6</text>
<text x="814.0" y="588.0" font-size="11" fill="#6B7280" text-anchor="start" font-weight="normal">10k</text>
<g transform="translate(800,610) rotate(90.0)"><polyline points="0.0,0 14.0,0 17.5,-8 24.5,8 31.5,-8 38.5,8 45.5,-8 52.5,8 56.0,0 70.0,0" fill="none" stroke="#374151" stroke-width="2.5" stroke-linejoin="round"/></g>
<text x="814.0" y="643.0" font-size="12" fill="#1F2937" text-anchor="start" font-weight="bold">R7</text>
<text x="814.0" y="658.0" font-size="11" fill="#6B7280" text-anchor="start" font-weight="normal">10k</text>
<rect x="1010" y="230" width="210" height="300" rx="10" fill="#DBEAFE" stroke="#1D4ED8" stroke-width="1.5"/>
<polyline points="990,440 1010,440" fill="none" stroke="#1F2937" stroke-width="2" stroke-linejoin="round" stroke-linecap="round"/>
<text x="1018.0" y="444.0" font-size="11" fill="#1E3A8A" text-anchor="start" font-weight="bold">IN  (D1 pin)</text>
<polyline points="990,470 1010,470" fill="none" stroke="#1F2937" stroke-width="2" stroke-linejoin="round" stroke-linecap="round"/>
<text x="1018.0" y="474.0" font-size="11" fill="#1E3A8A" text-anchor="start" font-weight="bold">5V</text>
<polyline points="990,500 1010,500" fill="none" stroke="#1F2937" stroke-width="2" stroke-linejoin="round" stroke-linecap="round"/>
<text x="1018.0" y="504.0" font-size="11" fill="#1E3A8A" text-anchor="start" font-weight="bold">GND</text>
<text x="1115.0" y="250.0" font-size="13" fill="#1E3A8A" text-anchor="middle" font-weight="bold">K1  relay shield</text>
<text x="1115.0" y="266.0" font-size="10" fill="#6B7280" text-anchor="middle" font-weight="normal">Songle SRD-05VDC-SL-C</text>
<text x="1115.0" y="280.0" font-size="10" fill="#6B7280" text-anchor="middle" font-weight="normal">(D1 mini relay shield)</text>
<g transform="translate(1200,570) rotate(90.0)"><line x1="0" y1="0" x2="30.0" y2="0" stroke="#DC2626" stroke-width="2.5"/><line x1="40.0" y1="0" x2="70.0" y2="0" stroke="#DC2626" stroke-width="2.5"/><line x1="30.0" y1="-14" x2="30.0" y2="14" stroke="#1F2937" stroke-width="3"/>
<path d="M44.0,-14 Q36.0,0 44.0,14" fill="none" stroke="#1F2937" stroke-width="3"/><text x="21.0" y="-10" font-size="13" fill="#DC2626" font-weight="bold" text-anchor="middle">+</text></g>
<text x="1218.0" y="603.0" font-size="12" fill="#1F2937" text-anchor="start" font-weight="bold">C3</text>
<text x="1218.0" y="618.0" font-size="11" fill="#6B7280" text-anchor="start" font-weight="normal">100 µF</text>
<rect x="1310" y="140" width="140" height="36" rx="10" fill="#F1EFE8" stroke="#5F5E5A" stroke-width="1.5"/>
<polyline points="1330,176 1330,200" fill="none" stroke="#1F2937" stroke-width="2" stroke-linejoin="round" stroke-linecap="round"/>
<text x="1330.0" y="168.0" font-size="10" fill="#1F2937" text-anchor="middle" font-weight="bold"></text>
<text x="1380.0" y="163.0" font-size="13" fill="#1F2937" text-anchor="middle" font-weight="bold">C14 inlet (fused L)</text>
<circle cx="1330" cy="300" r="5" fill="#fff" stroke="#1F2937" stroke-width="2"/>
<circle cx="1410" cy="270" r="5" fill="#fff" stroke="#1F2937" stroke-width="2"/>
<circle cx="1410" cy="335" r="5" fill="#fff" stroke="#6B7280" stroke-width="2"/>
<line x1="1334" y1="298" x2="1398" y2="284" stroke="#1F2937" stroke-width="3"/>
<text x="1322.0" y="318.0" font-size="10" fill="#1F2937" text-anchor="end" font-weight="bold">COM</text>
<text x="1420.0" y="264.0" font-size="10" fill="#1F2937" text-anchor="start" font-weight="bold">NO</text>
<text x="1420.0" y="339.0" font-size="10" fill="#6B7280" text-anchor="start" font-weight="normal">NC</text>
<rect x="1310" y="450" width="150" height="70" rx="10" fill="#FAECE7" stroke="#993C1D" stroke-width="1.5"/>
<polyline points="1450,430 1450,450" fill="none" stroke="#1F2937" stroke-width="2" stroke-linejoin="round" stroke-linecap="round"/>
<text x="1450.0" y="466.0" font-size="10" fill="#712B13" text-anchor="middle" font-weight="bold"></text>
<polyline points="1385,520 1385,540" fill="none" stroke="#1F2937" stroke-width="2" stroke-linejoin="round" stroke-linecap="round"/>
<text x="1385.0" y="512.0" font-size="10" fill="#712B13" text-anchor="middle" font-weight="bold"></text>
<text x="1385.0" y="470.0" font-size="13" fill="#712B13" text-anchor="middle" font-weight="bold">SSR (existing)</text>
<text x="1385.0" y="486.0" font-size="10" fill="#6B7280" text-anchor="middle" font-weight="normal">AC1 ← K1 NO · AC2 → outlet</text>
<rect x="1320" y="600" width="130" height="40" rx="10" fill="#F1EFE8" stroke="#5F5E5A" stroke-width="1.5"/>
<polyline points="1385,580 1385,600" fill="none" stroke="#1F2937" stroke-width="2" stroke-linejoin="round" stroke-linecap="round"/>
<text x="1385.0" y="616.0" font-size="10" fill="#1F2937" text-anchor="middle" font-weight="bold"></text>
<text x="1385.0" y="625.0" font-size="13" fill="#1F2937" text-anchor="middle" font-weight="bold">outlet hot (black)</text>
<polyline points="220,330 250,330" fill="none" stroke="#DC2626" stroke-width="2.5" stroke-linejoin="round" stroke-linecap="round"/>
<rect x="250" y="320.0" width="46" height="20" rx="10" fill="#FEE2E2" stroke="#DC2626" stroke-width="1.5"/>
<text x="273.0" y="334.0" font-size="11" fill="#DC2626" text-anchor="middle" font-weight="bold">+5V</text>
<polyline points="220,740 250,740" fill="none" stroke="#374151" stroke-width="2.5" stroke-linejoin="round" stroke-linecap="round"/>
<rect x="250" y="730.0" width="46" height="20" rx="10" fill="#E5E7EB" stroke="#374151" stroke-width="1.5"/>
<text x="273.0" y="744.0" font-size="11" fill="#374151" text-anchor="middle" font-weight="bold">GND</text>
<polyline points="500,320 470,320" fill="none" stroke="#374151" stroke-width="2.5" stroke-linejoin="round" stroke-linecap="round"/>
<rect x="424" y="310.0" width="46" height="20" rx="10" fill="#E5E7EB" stroke="#374151" stroke-width="1.5"/>
<text x="447.0" y="324.0" font-size="11" fill="#374151" text-anchor="middle" font-weight="bold">GND</text>
<polyline points="500,600 470,600" fill="none" stroke="#374151" stroke-width="2.5" stroke-linejoin="round" stroke-linecap="round"/>
<rect x="424" y="590.0" width="46" height="20" rx="10" fill="#E5E7EB" stroke="#374151" stroke-width="1.5"/>
<text x="447.0" y="604.0" font-size="11" fill="#374151" text-anchor="middle" font-weight="bold">GND</text>
<rect x="297.0" y="440" width="46" height="20" rx="10" fill="#E5E7EB" stroke="#374151" stroke-width="1.5"/>
<text x="320.0" y="454.0" font-size="11" fill="#374151" text-anchor="middle" font-weight="bold">GND</text>
<rect x="357.0" y="560" width="46" height="20" rx="10" fill="#E5E7EB" stroke="#374151" stroke-width="1.5"/>
<text x="380.0" y="574.0" font-size="11" fill="#374151" text-anchor="middle" font-weight="bold">GND</text>
<rect x="800" y="310.0" width="46" height="20" rx="10" fill="#FEE2E2" stroke="#DC2626" stroke-width="1.5"/>
<text x="823.0" y="324.0" font-size="11" fill="#DC2626" text-anchor="middle" font-weight="bold">+5V</text>
<rect x="677.0" y="230" width="46" height="20" rx="10" fill="#E5E7EB" stroke="#374151" stroke-width="1.5"/>
<text x="700.0" y="244.0" font-size="11" fill="#374151" text-anchor="middle" font-weight="bold">GND</text>
<rect x="850" y="350.0" width="46" height="20" rx="10" fill="#FEE2E2" stroke="#DC2626" stroke-width="1.5"/>
<text x="873.0" y="364.0" font-size="11" fill="#DC2626" text-anchor="middle" font-weight="bold">+5V</text>
<polyline points="670,520 700,520" fill="none" stroke="#374151" stroke-width="2.5" stroke-linejoin="round" stroke-linecap="round"/>
<rect x="700" y="510.0" width="46" height="20" rx="10" fill="#E5E7EB" stroke="#374151" stroke-width="1.5"/>
<text x="723.0" y="524.0" font-size="11" fill="#374151" text-anchor="middle" font-weight="bold">GND</text>
<polyline points="670,560 700,560" fill="none" stroke="#374151" stroke-width="2.5" stroke-linejoin="round" stroke-linecap="round"/>
<rect x="700" y="550.0" width="46" height="20" rx="10" fill="#E5E7EB" stroke="#374151" stroke-width="1.5"/>
<text x="723.0" y="564.0" font-size="11" fill="#374151" text-anchor="middle" font-weight="bold">GND</text>
<polyline points="670,600 700,600" fill="none" stroke="#DC2626" stroke-width="2.5" stroke-linejoin="round" stroke-linecap="round"/>
<rect x="700" y="590.0" width="46" height="20" rx="10" fill="#FEE2E2" stroke="#DC2626" stroke-width="1.5"/>
<text x="723.0" y="604.0" font-size="11" fill="#DC2626" text-anchor="middle" font-weight="bold">+5V</text>
<rect x="877.0" y="530" width="46" height="20" rx="10" fill="#E5E7EB" stroke="#374151" stroke-width="1.5"/>
<text x="900.0" y="544.0" font-size="11" fill="#374151" text-anchor="middle" font-weight="bold">GND</text>
<rect x="777.0" y="680" width="46" height="20" rx="10" fill="#E5E7EB" stroke="#374151" stroke-width="1.5"/>
<text x="800.0" y="694.0" font-size="11" fill="#374151" text-anchor="middle" font-weight="bold">GND</text>
<rect x="944" y="460.0" width="46" height="20" rx="10" fill="#FEE2E2" stroke="#DC2626" stroke-width="1.5"/>
<text x="967.0" y="474.0" font-size="11" fill="#DC2626" text-anchor="middle" font-weight="bold">+5V</text>
<rect x="944" y="490.0" width="46" height="20" rx="10" fill="#E5E7EB" stroke="#374151" stroke-width="1.5"/>
<text x="967.0" y="504.0" font-size="11" fill="#374151" text-anchor="middle" font-weight="bold">GND</text>
<polyline points="1200,570 1200,560" fill="none" stroke="#DC2626" stroke-width="2.5" stroke-linejoin="round" stroke-linecap="round"/>
<rect x="1177.0" y="540" width="46" height="20" rx="10" fill="#FEE2E2" stroke="#DC2626" stroke-width="1.5"/>
<text x="1200.0" y="554.0" font-size="11" fill="#DC2626" text-anchor="middle" font-weight="bold">+5V</text>
<rect x="1177.0" y="640" width="46" height="20" rx="10" fill="#E5E7EB" stroke="#374151" stroke-width="1.5"/>
<text x="1200.0" y="654.0" font-size="11" fill="#374151" text-anchor="middle" font-weight="bold">GND</text>
<circle cx="380" cy="480" r="4" fill="#1F2937"/>
<circle cx="800" cy="540" r="4" fill="#1F2937"/>
<circle cx="900" cy="440" r="4" fill="#1F2937"/>
<circle cx="320" cy="360" r="4" fill="#1F2937"/>
<circle cx="800" cy="440" r="4" fill="#1F2937"/>
<circle cx="720" cy="360" r="4" fill="#1F2937"/>
<circle cx="700" cy="320" r="4" fill="#1F2937"/>
<path d="M495,435 L505,445 M495,445 L505,435" stroke="#6B7280" stroke-width="2"/>
<path d="M495,475 L505,485 M495,485 L505,475" stroke="#6B7280" stroke-width="2"/>
<path d="M495,515 L505,525 M495,525 L505,515" stroke="#6B7280" stroke-width="2"/>
<path d="M495,555 L505,565 M495,565 L505,555" stroke="#6B7280" stroke-width="2"/>
<path d="M665,475 L675,485 M665,485 L675,475" stroke="#6B7280" stroke-width="2"/>
<text x="302.0" y="334.0" font-size="11" fill="#6B7280" text-anchor="start" font-weight="normal">← +5V source</text>
<text x="712.0" y="268.0" font-size="10" fill="#6B7280" text-anchor="start" font-weight="normal">right at pin 16</text>
<text x="736.0" y="416.0" font-size="10" fill="#6B7280" text-anchor="start" font-weight="normal">(pins 14–15, any way round)</text>
<text x="700.0" y="640.0" font-size="10" fill="#6B7280" text-anchor="start" font-weight="normal">unused half</text>
<text x="900.0" y="566.0" font-size="9" fill="#6B7280" text-anchor="middle" font-weight="normal">holds relay off if</text>
<text x="900.0" y="578.0" font-size="9" fill="#6B7280" text-anchor="middle" font-weight="normal">U1 is unplugged</text>
<text x="1115.0" y="322.0" font-size="10" fill="#6B7280" text-anchor="middle" font-weight="normal">already on the shield:</text>
<text x="1115.0" y="346.0" font-size="10" fill="#6B7280" text-anchor="middle" font-weight="normal">coil · transistor ·</text>
<text x="1115.0" y="360.0" font-size="10" fill="#6B7280" text-anchor="middle" font-weight="normal">flyback diode · LED</text>
<text x="1255.0" y="292.0" font-size="10" fill="#1D4ED8" text-anchor="middle" font-weight="normal">coil</text>
<text x="1366.0" y="398.0" font-size="11" fill="#1F2937" text-anchor="middle" font-weight="bold">K1 screw terminal</text>
<text x="1366.0" y="412.0" font-size="9" fill="#6B7280" text-anchor="middle" font-weight="normal">COM = middle screw</text>
<text x="1366.0" y="425.0" font-size="9" fill="#6B7280" text-anchor="middle" font-weight="normal">shown open (coil off)</text>
<text x="1382.0" y="700.0" font-size="10" fill="#6B7280" text-anchor="middle" font-weight="normal">Neutral and ground</text>
<text x="1382.0" y="714.0" font-size="10" fill="#6B7280" text-anchor="middle" font-weight="normal">unchanged</text>
<text x="1220.0" y="670.0" font-size="10" fill="#6B7280" text-anchor="start" font-weight="normal">stripe = −</text>
<text x="40.0" y="830.0" font-size="13" fill="#1F2937" text-anchor="start" font-weight="bold">Wire colours</text>
<polyline points="40,848 70,848" fill="none" stroke="#D97706" stroke-width="3" stroke-linejoin="round" stroke-linecap="round"/>
<text x="80.0" y="852.0" font-size="11" fill="#1F2937" text-anchor="start" font-weight="normal">HEARTBEAT (GPIO23)</text>
<polyline points="40,868 70,868" fill="none" stroke="#2563EB" stroke-width="3" stroke-linejoin="round" stroke-linecap="round"/>
<text x="80.0" y="872.0" font-size="11" fill="#1F2937" text-anchor="start" font-weight="normal">PERMIT (GPIO25)</text>
<polyline points="40,888 70,888" fill="none" stroke="#DC2626" stroke-width="3" stroke-linejoin="round" stroke-linecap="round"/>
<text x="80.0" y="892.0" font-size="11" fill="#1F2937" text-anchor="start" font-weight="normal">+5V</text>
<polyline points="40,908 70,908" fill="none" stroke="#7C3AED" stroke-width="3" stroke-linejoin="round" stroke-linecap="round"/>
<text x="80.0" y="912.0" font-size="11" fill="#1F2937" text-anchor="start" font-weight="normal">Timing</text>
<polyline points="40,928 70,928" fill="none" stroke="#C026D3" stroke-width="3" stroke-linejoin="round" stroke-linecap="round"/>
<text x="80.0" y="932.0" font-size="11" fill="#1F2937" text-anchor="start" font-weight="normal">1Q / relay IN</text>
<polyline points="40,948 70,948" fill="none" stroke="#059669" stroke-width="3" stroke-linejoin="round" stroke-linecap="round"/>
<text x="80.0" y="952.0" font-size="11" fill="#1F2937" text-anchor="start" font-weight="normal">Feedback (GPIO34)</text>
<polyline points="40,968 70,968" fill="none" stroke="#B91C1C" stroke-width="3" stroke-linejoin="round" stroke-linecap="round"/>
<text x="80.0" y="972.0" font-size="11" fill="#1F2937" text-anchor="start" font-weight="normal">Mains hot</text>
<rect x="40" y="986" width="46" height="20" rx="10" fill="#FEE2E2" stroke="#DC2626" stroke-width="1.5"/>
<text x="63.0" y="1000.0" font-size="11" fill="#DC2626" text-anchor="middle" font-weight="bold">+5V</text>
<text x="96.0" y="1000.0" font-size="11" fill="#1F2937" text-anchor="start" font-weight="normal">= wire to ESP32 5V/VIN</text>
<rect x="40" y="1012" width="46" height="20" rx="10" fill="#E5E7EB" stroke="#374151" stroke-width="1.5"/>
<text x="63.0" y="1026.0" font-size="11" fill="#374151" text-anchor="middle" font-weight="bold">GND</text>
<text x="96.0" y="1026.0" font-size="11" fill="#1F2937" text-anchor="start" font-weight="normal">= any ESP32 GND</text>
<text x="330.0" y="830.0" font-size="13" fill="#1F2937" text-anchor="start" font-weight="bold">Parts</text>
<text x="330.0" y="852.0" font-size="11" fill="#6B7280" text-anchor="start" font-weight="bold">Ref</text>
<text x="400.0" y="852.0" font-size="11" fill="#6B7280" text-anchor="start" font-weight="bold">Part</text>
<text x="630.0" y="852.0" font-size="11" fill="#6B7280" text-anchor="start" font-weight="bold">Value / how to identify</text>
<text x="850.0" y="852.0" font-size="11" fill="#6B7280" text-anchor="start" font-weight="bold">Connects</text>
<line x1="330" y1="858" x2="1110" y2="858" stroke="#D1D5DB"/>
<rect x="326" y="861" width="788" height="18" fill="#F3F4F6"/>
<text x="330.0" y="874.0" font-size="11" fill="#1F2937" text-anchor="start" font-weight="bold">U1</text>
<text x="400.0" y="874.0" font-size="11" fill="#1F2937" text-anchor="start" font-weight="normal">CD74HCT123E</text>
<text x="630.0" y="874.0" font-size="11" fill="#1F2937" text-anchor="start" font-weight="normal">DIP-16, must say HCT</text>
<text x="850.0" y="874.0" font-size="11" fill="#1F2937" text-anchor="start" font-weight="normal">see pin labels</text>
<text x="330.0" y="892.0" font-size="11" fill="#1F2937" text-anchor="start" font-weight="bold">K1</text>
<text x="400.0" y="892.0" font-size="11" fill="#1F2937" text-anchor="start" font-weight="normal">Relay shield, Songle SRD-05VDC-SL-C</text>
<text x="630.0" y="892.0" font-size="11" fill="#1F2937" text-anchor="start" font-weight="normal">driver, diode, LED on board</text>
<text x="850.0" y="892.0" font-size="11" fill="#1F2937" text-anchor="start" font-weight="normal">IN ← 1Q · 5V · GND · COM/NO mains</text>
<rect x="326" y="897" width="788" height="18" fill="#F3F4F6"/>
<text x="330.0" y="910.0" font-size="11" fill="#1F2937" text-anchor="start" font-weight="bold">C1</text>
<text x="400.0" y="910.0" font-size="11" fill="#1F2937" text-anchor="start" font-weight="normal">100 nF ceramic</text>
<text x="630.0" y="910.0" font-size="11" fill="#1F2937" text-anchor="start" font-weight="normal">marked 104</text>
<text x="850.0" y="910.0" font-size="11" fill="#1F2937" text-anchor="start" font-weight="normal">U1 pin 16 to GND</text>
<text x="330.0" y="928.0" font-size="11" fill="#1F2937" text-anchor="start" font-weight="bold">C2</text>
<text x="400.0" y="928.0" font-size="11" fill="#1F2937" text-anchor="start" font-weight="normal">4.7 µF film</text>
<text x="630.0" y="928.0" font-size="11" fill="#1F2937" text-anchor="start" font-weight="normal">non-polarized, marked 475</text>
<text x="850.0" y="928.0" font-size="11" fill="#1F2937" text-anchor="start" font-weight="normal">U1 pin 14 to pin 15</text>
<rect x="326" y="933" width="788" height="18" fill="#F3F4F6"/>
<text x="330.0" y="946.0" font-size="11" fill="#1F2937" text-anchor="start" font-weight="bold">C3</text>
<text x="400.0" y="946.0" font-size="11" fill="#1F2937" text-anchor="start" font-weight="normal">100 µF electrolytic</text>
<text x="630.0" y="946.0" font-size="11" fill="#1F2937" text-anchor="start" font-weight="normal">≥10 V, stripe = −</text>
<text x="850.0" y="946.0" font-size="11" fill="#1F2937" text-anchor="start" font-weight="normal">+5V to GND near K1</text>
<text x="330.0" y="964.0" font-size="11" fill="#1F2937" text-anchor="start" font-weight="bold">R1</text>
<text x="400.0" y="964.0" font-size="11" fill="#1F2937" text-anchor="start" font-weight="normal">10k</text>
<text x="630.0" y="964.0" font-size="11" fill="#1F2937" text-anchor="start" font-weight="normal">brown-black-orange</text>
<text x="850.0" y="964.0" font-size="11" fill="#1F2937" text-anchor="start" font-weight="normal">GPIO23 to GND</text>
<rect x="326" y="969" width="788" height="18" fill="#F3F4F6"/>
<text x="330.0" y="982.0" font-size="11" fill="#1F2937" text-anchor="start" font-weight="bold">R2</text>
<text x="400.0" y="982.0" font-size="11" fill="#1F2937" text-anchor="start" font-weight="normal">10k</text>
<text x="630.0" y="982.0" font-size="11" fill="#1F2937" text-anchor="start" font-weight="normal">brown-black-orange</text>
<text x="850.0" y="982.0" font-size="11" fill="#1F2937" text-anchor="start" font-weight="normal">GPIO25 to GND</text>
<text x="330.0" y="1000.0" font-size="11" fill="#1F2937" text-anchor="start" font-weight="bold">R3</text>
<text x="400.0" y="1000.0" font-size="11" fill="#1F2937" text-anchor="start" font-weight="normal">1 MΩ 1%</text>
<text x="630.0" y="1000.0" font-size="11" fill="#1F2937" text-anchor="start" font-weight="normal">brown-black-black-yellow-brown</text>
<text x="850.0" y="1000.0" font-size="11" fill="#1F2937" text-anchor="start" font-weight="normal">U1 pin 15 to +5V</text>
<rect x="326" y="1005" width="788" height="18" fill="#F3F4F6"/>
<text x="330.0" y="1018.0" font-size="11" fill="#1F2937" text-anchor="start" font-weight="bold">R4</text>
<text x="400.0" y="1018.0" font-size="11" fill="#1F2937" text-anchor="start" font-weight="normal">100k</text>
<text x="630.0" y="1018.0" font-size="11" fill="#1F2937" text-anchor="start" font-weight="normal">brown-black-yellow</text>
<text x="850.0" y="1018.0" font-size="11" fill="#1F2937" text-anchor="start" font-weight="normal">U1 pin 13 to GND</text>
<text x="330.0" y="1036.0" font-size="11" fill="#1F2937" text-anchor="start" font-weight="bold">R5</text>
<text x="400.0" y="1036.0" font-size="11" fill="#1F2937" text-anchor="start" font-weight="normal">10k</text>
<text x="630.0" y="1036.0" font-size="11" fill="#1F2937" text-anchor="start" font-weight="normal">brown-black-orange</text>
<text x="850.0" y="1036.0" font-size="11" fill="#1F2937" text-anchor="start" font-weight="normal">U1 pin 13 to GPIO34</text>
<rect x="326" y="1041" width="788" height="18" fill="#F3F4F6"/>
<text x="330.0" y="1054.0" font-size="11" fill="#1F2937" text-anchor="start" font-weight="bold">R6</text>
<text x="400.0" y="1054.0" font-size="11" fill="#1F2937" text-anchor="start" font-weight="normal">10k</text>
<text x="630.0" y="1054.0" font-size="11" fill="#1F2937" text-anchor="start" font-weight="normal">brown-black-orange</text>
<text x="850.0" y="1054.0" font-size="11" fill="#1F2937" text-anchor="start" font-weight="normal">GPIO34 to R7 (divider)</text>
<text x="330.0" y="1072.0" font-size="11" fill="#1F2937" text-anchor="start" font-weight="bold">R7</text>
<text x="400.0" y="1072.0" font-size="11" fill="#1F2937" text-anchor="start" font-weight="normal">10k</text>
<text x="630.0" y="1072.0" font-size="11" fill="#1F2937" text-anchor="start" font-weight="normal">brown-black-orange</text>
<text x="850.0" y="1072.0" font-size="11" fill="#1F2937" text-anchor="start" font-weight="normal">R6 to GND (divider)</text>
<text x="1120.0" y="830.0" font-size="13" fill="#1F2937" text-anchor="start" font-weight="bold">Check before power-up</text>
<text x="1120.0" y="852.0" font-size="11" fill="#1F2937" text-anchor="start" font-weight="normal">U1 pin 1 (dot/notch) faces the right way in</text>
<text x="1120.0" y="869.0" font-size="11" fill="#1F2937" text-anchor="start" font-weight="normal">  its socket.</text>
<text x="1120.0" y="886.0" font-size="11" fill="#1F2937" text-anchor="start" font-weight="normal">Check the shield drives its relay from D1:</text>
<text x="1120.0" y="903.0" font-size="11" fill="#1F2937" text-anchor="start" font-weight="normal">  power 5V/GND, touch D1 to 5V and it should</text>
<text x="1120.0" y="920.0" font-size="11" fill="#1F2937" text-anchor="start" font-weight="normal">  click.</text>
<text x="1120.0" y="937.0" font-size="11" fill="#1F2937" text-anchor="start" font-weight="normal">C3 stripe (−) to GND.</text>
<text x="1120.0" y="954.0" font-size="11" fill="#1F2937" text-anchor="start" font-weight="normal">Meter: 5V/VIN pin ≥ 4.5 V with K1 energized.</text>
<text x="1120.0" y="971.0" font-size="11" fill="#1F2937" text-anchor="start" font-weight="normal">Test COM–NO with a meter before any mains</text>
<text x="1120.0" y="988.0" font-size="11" fill="#1F2937" text-anchor="start" font-weight="normal">  wiring.</text>
<text x="40.0" y="1110.0" font-size="11" fill="#6B7280" text-anchor="start" font-weight="normal">Resistor bands are for common 4-band 5% parts; 1% parts have 5 bands (10k = brown-black-black-red-brown).</text>
</svg>