solid OpenSCAD_Model
  facet normal 1 -0 0
    outer loop
      vertex 4 4 20
      vertex 4 10 0
      vertex 4 10 20
    endloop
  endfacet
  facet normal 1 0 0
    outer loop
      vertex 4 10 0
      vertex 4 4 20
      vertex 4 4 0
    endloop
  endfacet
  facet normal 0 0 1
    outer loop
      vertex 18 14 20
      vertex 4 10 20
      vertex 18 10 20
    endloop
  endfacet
  facet normal 0 0 1
    outer loop
      vertex 4 10 20
      vertex 0 14 20
      vertex 4 4 20
    endloop
  endfacet
  facet normal -0 0 1
    outer loop
      vertex 0 14 20
      vertex 4 10 20
      vertex 18 14 20
    endloop
  endfacet
  facet normal -0 0 1
    outer loop
      vertex 4 4 20
      vertex 34 0 20
      vertex 34 4 20
    endloop
  endfacet
  facet normal 0 0 1
    outer loop
      vertex 4 4 20
      vertex 0 0 20
      vertex 34 0 20
    endloop
  endfacet
  facet normal 0 0 1
    outer loop
      vertex 0 0 20
      vertex 4 4 20
      vertex 0 14 20
    endloop
  endfacet
  facet normal 0 0 -1
    outer loop
      vertex 34 0 0
      vertex 4 4 0
      vertex 34 4 0
    endloop
  endfacet
  facet normal -0 0 -1
    outer loop
      vertex 4 4 0
      vertex 0 0 0
      vertex 4 10 0
    endloop
  endfacet
  facet normal 0 0 -1
    outer loop
      vertex 0 0 0
      vertex 4 4 0
      vertex 34 0 0
    endloop
  endfacet
  facet normal 0 0 -1
    outer loop
      vertex 4 10 0
      vertex 18 14 0
      vertex 18 10 0
    endloop
  endfacet
  facet normal 0 0 -1
    outer loop
      vertex 4 10 0
      vertex 0 14 0
      vertex 18 14 0
    endloop
  endfacet
  facet normal 0 0 -1
    outer loop
      vertex 0 14 0
      vertex 4 10 0
      vertex 0 0 0
    endloop
  endfacet
  facet normal -1 0 0
    outer loop
      vertex 0 0 0
      vertex 0 14 20
      vertex 0 14 0
    endloop
  endfacet
  facet normal -1 -0 0
    outer loop
      vertex 0 14 20
      vertex 0 0 0
      vertex 0 0 20
    endloop
  endfacet
  facet normal 0 1 0
    outer loop
      vertex 11.8509 14 11.2914
      vertex 18 14 20
      vertex 12.0498 14 11.299
    endloop
  endfacet
  facet normal 0 1 0
    outer loop
      vertex 18 14 20
      vertex 12.2475 14 11.2762
      vertex 12.0498 14 11.299
    endloop
  endfacet
  facet normal 0 1 0
    outer loop
      vertex 18 14 20
      vertex 12.4394 14 11.2235
      vertex 12.2475 14 11.2762
    endloop
  endfacet
  facet normal 0 1 0
    outer loop
      vertex 18 14 20
      vertex 12.621 14 11.1421
      vertex 12.4394 14 11.2235
    endloop
  endfacet
  facet normal 0 1 0
    outer loop
      vertex 18 14 20
      vertex 12.7881 14 11.0339
      vertex 12.621 14 11.1421
    endloop
  endfacet
  facet normal 0 1 0
    outer loop
      vertex 18 14 20
      vertex 12.9367 14 10.9015
      vertex 12.7881 14 11.0339
    endloop
  endfacet
  facet normal 0 1 0
    outer loop
      vertex 18 14 20
      vertex 13.0633 14 10.7479
      vertex 12.9367 14 10.9015
    endloop
  endfacet
  facet normal 0 1 0
    outer loop
      vertex 18 14 20
      vertex 13.165 14 10.5768
      vertex 13.0633 14 10.7479
    endloop
  endfacet
  facet normal 0 1 0
    outer loop
      vertex 18 14 20
      vertex 13.2394 14 10.3922
      vertex 13.165 14 10.5768
    endloop
  endfacet
  facet normal 0 1 0
    outer loop
      vertex 18 14 20
      vertex 13.2848 14 10.1984
      vertex 13.2394 14 10.3922
    endloop
  endfacet
  facet normal 0 1 0
    outer loop
      vertex 18 14 20
      vertex 13.3 14 10
      vertex 13.2848 14 10.1984
    endloop
  endfacet
  facet normal 0 1 -0
    outer loop
      vertex 18 14 0
      vertex 13.3 14 10
      vertex 18 14 20
    endloop
  endfacet
  facet normal 0 1 0
    outer loop
      vertex 13.3 14 10
      vertex 18 14 0
      vertex 13.2848 14 9.80156
    endloop
  endfacet
  facet normal 0 1 0
    outer loop
      vertex 13.2848 14 9.80156
      vertex 18 14 0
      vertex 13.2394 14 9.60776
    endloop
  endfacet
  facet normal 0 1 0
    outer loop
      vertex 12.2475 14 8.72378
      vertex 18 14 0
      vertex 12.0498 14 8.70095
    endloop
  endfacet
  facet normal 0 1 0
    outer loop
      vertex 12.4394 14 8.77652
      vertex 18 14 0
      vertex 12.2475 14 8.72378
    endloop
  endfacet
  facet normal 0 1 0
    outer loop
      vertex 12.621 14 8.85793
      vertex 18 14 0
      vertex 12.4394 14 8.77652
    endloop
  endfacet
  facet normal 0 1 0
    outer loop
      vertex 12.7881 14 8.96612
      vertex 18 14 0
      vertex 12.621 14 8.85793
    endloop
  endfacet
  facet normal 0 1 0
    outer loop
      vertex 12.9367 14 9.09854
      vertex 18 14 0
      vertex 12.7881 14 8.96612
    endloop
  endfacet
  facet normal 0 1 0
    outer loop
      vertex 13.0633 14 9.25209
      vertex 18 14 0
      vertex 12.9367 14 9.09854
    endloop
  endfacet
  facet normal 0 1 0
    outer loop
      vertex 13.165 14 9.42316
      vertex 18 14 0
      vertex 13.0633 14 9.25209
    endloop
  endfacet
  facet normal 0 1 0
    outer loop
      vertex 13.2394 14 9.60776
      vertex 18 14 0
      vertex 13.165 14 9.42316
    endloop
  endfacet
  facet normal 0 1 0
    outer loop
      vertex 11.6555 14 11.2535
      vertex 18 14 20
      vertex 11.8509 14 11.2914
    endloop
  endfacet
  facet normal 0 1 0
    outer loop
      vertex 18 14 20
      vertex 11.6555 14 11.2535
      vertex 0 14 20
    endloop
  endfacet
  facet normal 0 1 -0
    outer loop
      vertex 11.4682 14 11.1863
      vertex 0 14 20
      vertex 11.6555 14 11.2535
    endloop
  endfacet
  facet normal 0 1 -0
    outer loop
      vertex 11.2934 14 11.0912
      vertex 0 14 20
      vertex 11.4682 14 11.1863
    endloop
  endfacet
  facet normal 0 1 -0
    outer loop
      vertex 11.1351 14 10.9705
      vertex 0 14 20
      vertex 11.2934 14 11.0912
    endloop
  endfacet
  facet normal 0 1 -0
    outer loop
      vertex 10.9971 14 10.8271
      vertex 0 14 20
      vertex 11.1351 14 10.9705
    endloop
  endfacet
  facet normal 0 1 -0
    outer loop
      vertex 10.8826 14 10.6643
      vertex 0 14 20
      vertex 10.9971 14 10.8271
    endloop
  endfacet
  facet normal 0 1 -0
    outer loop
      vertex 10.7942 14 10.486
      vertex 0 14 20
      vertex 10.8826 14 10.6643
    endloop
  endfacet
  facet normal 0 1 -0
    outer loop
      vertex 10.7342 14 10.2962
      vertex 0 14 20
      vertex 10.7942 14 10.486
    endloop
  endfacet
  facet normal 0 1 -0
    outer loop
      vertex 10.7038 14 10.0995
      vertex 0 14 20
      vertex 10.7342 14 10.2962
    endloop
  endfacet
  facet normal 0 1 -0
    outer loop
      vertex 10.7038 14 9.90049
      vertex 0 14 20
      vertex 10.7038 14 10.0995
    endloop
  endfacet
  facet normal 0 1 0
    outer loop
      vertex 0 14 0
      vertex 10.7038 14 9.90049
      vertex 10.7342 14 9.70379
    endloop
  endfacet
  facet normal 0 1 0
    outer loop
      vertex 0 14 0
      vertex 10.7342 14 9.70379
      vertex 10.7942 14 9.51404
    endloop
  endfacet
  facet normal 0 1 0
    outer loop
      vertex 0 14 0
      vertex 10.7942 14 9.51404
      vertex 10.8826 14 9.33568
    endloop
  endfacet
  facet normal 0 1 0
    outer loop
      vertex 0 14 0
      vertex 10.8826 14 9.33568
      vertex 10.9971 14 9.17288
    endloop
  endfacet
  facet normal 0 1 0
    outer loop
      vertex 0 14 0
      vertex 10.9971 14 9.17288
      vertex 11.1351 14 9.02948
    endloop
  endfacet
  facet normal 0 1 0
    outer loop
      vertex 18 14 0
      vertex 11.8509 14 8.70858
      vertex 12.0498 14 8.70095
    endloop
  endfacet
  facet normal 0 1 0
    outer loop
      vertex 18 14 0
      vertex 11.6555 14 8.74647
      vertex 11.8509 14 8.70858
    endloop
  endfacet
  facet normal 0 1 0
    outer loop
      vertex 0 14 0
      vertex 11.6555 14 8.74647
      vertex 18 14 0
    endloop
  endfacet
  facet normal 0 1 0
    outer loop
      vertex 11.6555 14 8.74647
      vertex 0 14 0
      vertex 11.4682 14 8.81374
    endloop
  endfacet
  facet normal 0 1 0
    outer loop
      vertex 11.4682 14 8.81374
      vertex 0 14 0
      vertex 11.2934 14 8.90882
    endloop
  endfacet
  facet normal 0 1 0
    outer loop
      vertex 11.2934 14 8.90882
      vertex 0 14 0
      vertex 11.1351 14 9.02948
    endloop
  endfacet
  facet normal 0 1 0
    outer loop
      vertex 10.7038 14 9.90049
      vertex 0 14 0
      vertex 0 14 20
    endloop
  endfacet
  facet normal 0 -1 0
    outer loop
      vertex 23.5124 0 11.6286
      vertex 34 0 20
      vertex 0 0 20
    endloop
  endfacet
  facet normal 0 -1 0
    outer loop
      vertex 34 0 20
      vertex 23.7048 0 11.6742
      vertex 23.9012 0 11.6971
    endloop
  endfacet
  facet normal 0 -1 0
    outer loop
      vertex 34 0 20
      vertex 23.5124 0 11.6286
      vertex 23.7048 0 11.6742
    endloop
  endfacet
  facet normal 0 -1 0
    outer loop
      vertex 0 0 20
      vertex 23.3267 0 11.561
      vertex 23.5124 0 11.6286
    endloop
  endfacet
  facet normal 0 -1 0
    outer loop
      vertex 0 0 20
      vertex 23.15 0 11.4722
      vertex 23.3267 0 11.561
    endloop
  endfacet
  facet normal 0 -1 0
    outer loop
      vertex 0 0 20
      vertex 22.9848 0 11.3636
      vertex 23.15 0 11.4722
    endloop
  endfacet
  facet normal 0 -1 0
    outer loop
      vertex 0 0 20
      vertex 22.8334 0 11.2365
      vertex 22.9848 0 11.3636
    endloop
  endfacet
  facet normal 0 -1 0
    outer loop
      vertex 0 0 20
      vertex 22.6977 0 11.0927
      vertex 22.8334 0 11.2365
    endloop
  endfacet
  facet normal 0 -1 0
    outer loop
      vertex 0 0 20
      vertex 22.5797 0 10.9342
      vertex 22.6977 0 11.0927
    endloop
  endfacet
  facet normal 0 -1 0
    outer loop
      vertex 0 0 20
      vertex 22.4808 0 10.763
      vertex 22.5797 0 10.9342
    endloop
  endfacet
  facet normal 0 -1 0
    outer loop
      vertex 0 0 20
      vertex 22.4025 0 10.5814
      vertex 22.4808 0 10.763
    endloop
  endfacet
  facet normal 0 -1 0
    outer loop
      vertex 0 0 20
      vertex 22.3458 0 10.392
      vertex 22.4025 0 10.5814
    endloop
  endfacet
  facet normal 0 -1 0
    outer loop
      vertex 0 0 20
      vertex 22.3115 0 10.1974
      vertex 22.3458 0 10.392
    endloop
  endfacet
  facet normal 0 -1 0
    outer loop
      vertex 0 0 20
      vertex 22.3 0 10
      vertex 22.3115 0 10.1974
    endloop
  endfacet
  facet normal 0 -1 0
    outer loop
      vertex 0 0 0
      vertex 22.3 0 10
      vertex 0 0 20
    endloop
  endfacet
  facet normal 0 -1 -0
    outer loop
      vertex 22.3 0 10
      vertex 0 0 0
      vertex 22.3115 0 9.80264
    endloop
  endfacet
  facet normal 0 -1 -0
    outer loop
      vertex 22.3115 0 9.80264
      vertex 0 0 0
      vertex 22.3458 0 9.60795
    endloop
  endfacet
  facet normal 0 -1 -0
    outer loop
      vertex 22.3458 0 9.60795
      vertex 0 0 0
      vertex 22.4025 0 9.41857
    endloop
  endfacet
  facet normal 0 -1 -0
    outer loop
      vertex 22.4025 0 9.41857
      vertex 0 0 0
      vertex 22.4808 0 9.23704
    endloop
  endfacet
  facet normal 0 -1 -0
    outer loop
      vertex 22.4808 0 9.23704
      vertex 0 0 0
      vertex 22.5797 0 9.06583
    endloop
  endfacet
  facet normal 0 -1 -0
    outer loop
      vertex 22.5797 0 9.06583
      vertex 0 0 0
      vertex 22.6977 0 8.90726
    endloop
  endfacet
  facet normal 0 -1 -0
    outer loop
      vertex 22.6977 0 8.90726
      vertex 0 0 0
      vertex 22.8334 0 8.76346
    endloop
  endfacet
  facet normal 0 -1 -0
    outer loop
      vertex 22.8334 0 8.76346
      vertex 0 0 0
      vertex 22.9848 0 8.63639
    endloop
  endfacet
  facet normal 0 -1 -0
    outer loop
      vertex 22.9848 0 8.63639
      vertex 0 0 0
      vertex 23.15 0 8.52776
    endloop
  endfacet
  facet normal 0 -1 0
    outer loop
      vertex 23.7048 0 8.32583
      vertex 34 0 0
      vertex 23.9012 0 8.30288
    endloop
  endfacet
  facet normal 0 -1 0
    outer loop
      vertex 23.5124 0 8.37142
      vertex 34 0 0
      vertex 23.7048 0 8.32583
    endloop
  endfacet
  facet normal 0 -1 0
    outer loop
      vertex 34 0 0
      vertex 23.5124 0 8.37142
      vertex 0 0 0
    endloop
  endfacet
  facet normal 0 -1 -0
    outer loop
      vertex 23.3267 0 8.43903
      vertex 0 0 0
      vertex 23.5124 0 8.37142
    endloop
  endfacet
  facet normal 0 -1 -0
    outer loop
      vertex 23.15 0 8.52776
      vertex 0 0 0
      vertex 23.3267 0 8.43903
    endloop
  endfacet
  facet normal 0 -1 0
    outer loop
      vertex 24.0988 0 11.6971
      vertex 34 0 20
      vertex 23.9012 0 11.6971
    endloop
  endfacet
  facet normal 0 -1 0
    outer loop
      vertex 24.2952 0 11.6742
      vertex 34 0 20
      vertex 24.0988 0 11.6971
    endloop
  endfacet
  facet normal 0 -1 0
    outer loop
      vertex 24.4876 0 11.6286
      vertex 34 0 20
      vertex 24.2952 0 11.6742
    endloop
  endfacet
  facet normal 0 -1 0
    outer loop
      vertex 24.6733 0 11.561
      vertex 34 0 20
      vertex 24.4876 0 11.6286
    endloop
  endfacet
  facet normal 0 -1 0
    outer loop
      vertex 24.85 0 11.4722
      vertex 34 0 20
      vertex 24.6733 0 11.561
    endloop
  endfacet
  facet normal 0 -1 0
    outer loop
      vertex 25.0152 0 11.3636
      vertex 34 0 20
      vertex 24.85 0 11.4722
    endloop
  endfacet
  facet normal 0 -1 0
    outer loop
      vertex 25.1666 0 11.2365
      vertex 34 0 20
      vertex 25.0152 0 11.3636
    endloop
  endfacet
  facet normal 0 -1 0
    outer loop
      vertex 25.3023 0 11.0927
      vertex 34 0 20
      vertex 25.1666 0 11.2365
    endloop
  endfacet
  facet normal 0 -1 0
    outer loop
      vertex 25.4203 0 10.9342
      vertex 34 0 20
      vertex 25.3023 0 11.0927
    endloop
  endfacet
  facet normal 0 -1 0
    outer loop
      vertex 25.5192 0 10.763
      vertex 34 0 20
      vertex 25.4203 0 10.9342
    endloop
  endfacet
  facet normal 0 -1 0
    outer loop
      vertex 25.5975 0 10.5814
      vertex 34 0 20
      vertex 25.5192 0 10.763
    endloop
  endfacet
  facet normal 0 -1 0
    outer loop
      vertex 25.6542 0 10.392
      vertex 34 0 20
      vertex 25.5975 0 10.5814
    endloop
  endfacet
  facet normal 0 -1 0
    outer loop
      vertex 25.6885 0 10.1974
      vertex 34 0 20
      vertex 25.6542 0 10.392
    endloop
  endfacet
  facet normal 0 -1 0
    outer loop
      vertex 25.7 0 10
      vertex 34 0 20
      vertex 25.6885 0 10.1974
    endloop
  endfacet
  facet normal 0 -1 0
    outer loop
      vertex 34 0 0
      vertex 25.7 0 10
      vertex 25.6885 0 9.80264
    endloop
  endfacet
  facet normal 0 -1 0
    outer loop
      vertex 34 0 0
      vertex 25.6885 0 9.80264
      vertex 25.6542 0 9.60795
    endloop
  endfacet
  facet normal 0 -1 0
    outer loop
      vertex 34 0 0
      vertex 25.6542 0 9.60795
      vertex 25.5975 0 9.41857
    endloop
  endfacet
  facet normal 0 -1 0
    outer loop
      vertex 34 0 0
      vertex 25.5975 0 9.41857
      vertex 25.5192 0 9.23704
    endloop
  endfacet
  facet normal 0 -1 0
    outer loop
      vertex 34 0 0
      vertex 25.5192 0 9.23704
      vertex 25.4203 0 9.06583
    endloop
  endfacet
  facet normal 0 -1 0
    outer loop
      vertex 34 0 0
      vertex 25.4203 0 9.06583
      vertex 25.3023 0 8.90726
    endloop
  endfacet
  facet normal 0 -1 0
    outer loop
      vertex 23.9012 0 8.30288
      vertex 34 0 0
      vertex 24.0988 0 8.30288
    endloop
  endfacet
  facet normal 0 -1 0
    outer loop
      vertex 24.0988 0 8.30288
      vertex 34 0 0
      vertex 24.2952 0 8.32583
    endloop
  endfacet
  facet normal 0 -1 0
    outer loop
      vertex 25.7 0 10
      vertex 34 0 0
      vertex 34 0 20
    endloop
  endfacet
  facet normal 0 -1 0
    outer loop
      vertex 25.1666 0 8.76346
      vertex 34 0 0
      vertex 25.3023 0 8.90726
    endloop
  endfacet
  facet normal 0 -1 0
    outer loop
      vertex 25.0152 0 8.63639
      vertex 34 0 0
      vertex 25.1666 0 8.76346
    endloop
  endfacet
  facet normal 0 -1 0
    outer loop
      vertex 24.85 0 8.52776
      vertex 34 0 0
      vertex 25.0152 0 8.63639
    endloop
  endfacet
  facet normal 0 -1 0
    outer loop
      vertex 24.6733 0 8.43903
      vertex 34 0 0
      vertex 24.85 0 8.52776
    endloop
  endfacet
  facet normal 0 -1 0
    outer loop
      vertex 24.4876 0 8.37142
      vertex 34 0 0
      vertex 24.6733 0 8.43903
    endloop
  endfacet
  facet normal 0 -1 0
    outer loop
      vertex 24.2952 0 8.32583
      vertex 34 0 0
      vertex 24.4876 0 8.37142
    endloop
  endfacet
  facet normal 1 -0 0
    outer loop
      vertex 34 0 20
      vertex 34 4 0
      vertex 34 4 20
    endloop
  endfacet
  facet normal 1 0 0
    outer loop
      vertex 34 4 0
      vertex 34 0 20
      vertex 34 0 0
    endloop
  endfacet
  facet normal 0 1 0
    outer loop
      vertex 23.9012 4 11.6971
      vertex 34 4 20
      vertex 24.0988 4 11.6971
    endloop
  endfacet
  facet normal 0 1 0
    outer loop
      vertex 34 4 20
      vertex 24.2952 4 11.6742
      vertex 24.0988 4 11.6971
    endloop
  endfacet
  facet normal 0 1 0
    outer loop
      vertex 34 4 20
      vertex 24.4876 4 11.6286
      vertex 24.2952 4 11.6742
    endloop
  endfacet
  facet normal 0 1 0
    outer loop
      vertex 34 4 20
      vertex 24.6733 4 11.561
      vertex 24.4876 4 11.6286
    endloop
  endfacet
  facet normal 0 1 0
    outer loop
      vertex 34 4 20
      vertex 24.85 4 11.4722
      vertex 24.6733 4 11.561
    endloop
  endfacet
  facet normal 0 1 0
    outer loop
      vertex 34 4 20
      vertex 25.0152 4 11.3636
      vertex 24.85 4 11.4722
    endloop
  endfacet
  facet normal 0 1 0
    outer loop
      vertex 34 4 20
      vertex 25.1666 4 11.2365
      vertex 25.0152 4 11.3636
    endloop
  endfacet
  facet normal 0 1 0
    outer loop
      vertex 34 4 20
      vertex 25.3023 4 11.0927
      vertex 25.1666 4 11.2365
    endloop
  endfacet
  facet normal 0 1 0
    outer loop
      vertex 34 4 20
      vertex 25.4203 4 10.9342
      vertex 25.3023 4 11.0927
    endloop
  endfacet
  facet normal 0 1 0
    outer loop
      vertex 34 4 20
      vertex 25.5192 4 10.763
      vertex 25.4203 4 10.9342
    endloop
  endfacet
  facet normal 0 1 0
    outer loop
      vertex 34 4 20
      vertex 25.5975 4 10.5814
      vertex 25.5192 4 10.763
    endloop
  endfacet
  facet normal 0 1 0
    outer loop
      vertex 34 4 20
      vertex 25.6542 4 10.392
      vertex 25.5975 4 10.5814
    endloop
  endfacet
  facet normal 0 1 0
    outer loop
      vertex 34 4 20
      vertex 25.6885 4 10.1974
      vertex 25.6542 4 10.392
    endloop
  endfacet
  facet normal 0 1 0
    outer loop
      vertex 34 4 20
      vertex 25.7 4 10
      vertex 25.6885 4 10.1974
    endloop
  endfacet
  facet normal 0 1 -0
    outer loop
      vertex 34 4 0
      vertex 25.7 4 10
      vertex 34 4 20
    endloop
  endfacet
  facet normal 0 1 0
    outer loop
      vertex 25.7 4 10
      vertex 34 4 0
      vertex 25.6885 4 9.80264
    endloop
  endfacet
  facet normal 0 1 0
    outer loop
      vertex 25.6885 4 9.80264
      vertex 34 4 0
      vertex 25.6542 4 9.60795
    endloop
  endfacet
  facet normal 0 1 0
    outer loop
      vertex 25.6542 4 9.60795
      vertex 34 4 0
      vertex 25.5975 4 9.41857
    endloop
  endfacet
  facet normal 0 1 0
    outer loop
      vertex 25.5975 4 9.41857
      vertex 34 4 0
      vertex 25.5192 4 9.23704
    endloop
  endfacet
  facet normal 0 1 0
    outer loop
      vertex 25.5192 4 9.23704
      vertex 34 4 0
      vertex 25.4203 4 9.06583
    endloop
  endfacet
  facet normal 0 1 0
    outer loop
      vertex 24.0988 4 8.30288
      vertex 34 4 0
      vertex 23.9012 4 8.30288
    endloop
  endfacet
  facet normal 0 1 0
    outer loop
      vertex 24.2952 4 8.32583
      vertex 34 4 0
      vertex 24.0988 4 8.30288
    endloop
  endfacet
  facet normal 0 1 0
    outer loop
      vertex 24.4876 4 8.37142
      vertex 34 4 0
      vertex 24.2952 4 8.32583
    endloop
  endfacet
  facet normal 0 1 0
    outer loop
      vertex 24.6733 4 8.43903
      vertex 34 4 0
      vertex 24.4876 4 8.37142
    endloop
  endfacet
  facet normal 0 1 0
    outer loop
      vertex 24.85 4 8.52776
      vertex 34 4 0
      vertex 24.6733 4 8.43903
    endloop
  endfacet
  facet normal 0 1 0
    outer loop
      vertex 25.0152 4 8.63639
      vertex 34 4 0
      vertex 24.85 4 8.52776
    endloop
  endfacet
  facet normal 0 1 0
    outer loop
      vertex 25.1666 4 8.76346
      vertex 34 4 0
      vertex 25.0152 4 8.63639
    endloop
  endfacet
  facet normal 0 1 0
    outer loop
      vertex 25.3023 4 8.90726
      vertex 34 4 0
      vertex 25.1666 4 8.76346
    endloop
  endfacet
  facet normal 0 1 0
    outer loop
      vertex 25.4203 4 9.06583
      vertex 34 4 0
      vertex 25.3023 4 8.90726
    endloop
  endfacet
  facet normal 0 1 0
    outer loop
      vertex 23.7048 4 11.6742
      vertex 34 4 20
      vertex 23.9012 4 11.6971
    endloop
  endfacet
  facet normal 0 1 0
    outer loop
      vertex 23.5124 4 11.6286
      vertex 34 4 20
      vertex 23.7048 4 11.6742
    endloop
  endfacet
  facet normal 0 1 0
    outer loop
      vertex 34 4 20
      vertex 23.5124 4 11.6286
      vertex 4 4 20
    endloop
  endfacet
  facet normal 0 1 -0
    outer loop
      vertex 23.3267 4 11.561
      vertex 4 4 20
      vertex 23.5124 4 11.6286
    endloop
  endfacet
  facet normal 0 1 -0
    outer loop
      vertex 23.15 4 11.4722
      vertex 4 4 20
      vertex 23.3267 4 11.561
    endloop
  endfacet
  facet normal 0 1 -0
    outer loop
      vertex 22.9848 4 11.3636
      vertex 4 4 20
      vertex 23.15 4 11.4722
    endloop
  endfacet
  facet normal 0 1 -0
    outer loop
      vertex 22.8334 4 11.2365
      vertex 4 4 20
      vertex 22.9848 4 11.3636
    endloop
  endfacet
  facet normal 0 1 -0
    outer loop
      vertex 22.6977 4 11.0927
      vertex 4 4 20
      vertex 22.8334 4 11.2365
    endloop
  endfacet
  facet normal 0 1 -0
    outer loop
      vertex 22.5797 4 10.9342
      vertex 4 4 20
      vertex 22.6977 4 11.0927
    endloop
  endfacet
  facet normal 0 1 -0
    outer loop
      vertex 22.4808 4 10.763
      vertex 4 4 20
      vertex 22.5797 4 10.9342
    endloop
  endfacet
  facet normal 0 1 -0
    outer loop
      vertex 22.4025 4 10.5814
      vertex 4 4 20
      vertex 22.4808 4 10.763
    endloop
  endfacet
  facet normal 0 1 -0
    outer loop
      vertex 22.3458 4 10.392
      vertex 4 4 20
      vertex 22.4025 4 10.5814
    endloop
  endfacet
  facet normal 0 1 -0
    outer loop
      vertex 22.3115 4 10.1974
      vertex 4 4 20
      vertex 22.3458 4 10.392
    endloop
  endfacet
  facet normal 0 1 -0
    outer loop
      vertex 22.3 4 10
      vertex 4 4 20
      vertex 22.3115 4 10.1974
    endloop
  endfacet
  facet normal 0 1 0
    outer loop
      vertex 4 4 0
      vertex 22.3 4 10
      vertex 22.3115 4 9.80264
    endloop
  endfacet
  facet normal 0 1 0
    outer loop
      vertex 4 4 0
      vertex 22.3115 4 9.80264
      vertex 22.3458 4 9.60795
    endloop
  endfacet
  facet normal 0 1 0
    outer loop
      vertex 4 4 0
      vertex 22.3458 4 9.60795
      vertex 22.4025 4 9.41857
    endloop
  endfacet
  facet normal 0 1 0
    outer loop
      vertex 4 4 0
      vertex 22.4025 4 9.41857
      vertex 22.4808 4 9.23704
    endloop
  endfacet
  facet normal 0 1 0
    outer loop
      vertex 4 4 0
      vertex 22.4808 4 9.23704
      vertex 22.5797 4 9.06583
    endloop
  endfacet
  facet normal 0 1 0
    outer loop
      vertex 4 4 0
      vertex 22.5797 4 9.06583
      vertex 22.6977 4 8.90726
    endloop
  endfacet
  facet normal 0 1 0
    outer loop
      vertex 4 4 0
      vertex 22.6977 4 8.90726
      vertex 22.8334 4 8.76346
    endloop
  endfacet
  facet normal 0 1 0
    outer loop
      vertex 4 4 0
      vertex 22.8334 4 8.76346
      vertex 22.9848 4 8.63639
    endloop
  endfacet
  facet normal 0 1 0
    outer loop
      vertex 4 4 0
      vertex 22.9848 4 8.63639
      vertex 23.15 4 8.52776
    endloop
  endfacet
  facet normal 0 1 0
    outer loop
      vertex 34 4 0
      vertex 23.7048 4 8.32583
      vertex 23.9012 4 8.30288
    endloop
  endfacet
  facet normal 0 1 0
    outer loop
      vertex 34 4 0
      vertex 23.5124 4 8.37142
      vertex 23.7048 4 8.32583
    endloop
  endfacet
  facet normal 0 1 0
    outer loop
      vertex 4 4 0
      vertex 23.5124 4 8.37142
      vertex 34 4 0
    endloop
  endfacet
  facet normal 0 1 0
    outer loop
      vertex 23.5124 4 8.37142
      vertex 4 4 0
      vertex 23.3267 4 8.43903
    endloop
  endfacet
  facet normal 0 1 0
    outer loop
      vertex 23.3267 4 8.43903
      vertex 4 4 0
      vertex 23.15 4 8.52776
    endloop
  endfacet
  facet normal 0 1 0
    outer loop
      vertex 22.3 4 10
      vertex 4 4 0
      vertex 4 4 20
    endloop
  endfacet
  facet normal 1 -0 0
    outer loop
      vertex 18 10 20
      vertex 18 14 0
      vertex 18 14 20
    endloop
  endfacet
  facet normal 1 0 0
    outer loop
      vertex 18 14 0
      vertex 18 10 20
      vertex 18 10 0
    endloop
  endfacet
  facet normal 0 -1 0
    outer loop
      vertex 11.8509 10 11.2914
      vertex 18 10 20
      vertex 4 10 20
    endloop
  endfacet
  facet normal 0 -1 0
    outer loop
      vertex 18 10 20
      vertex 11.8509 10 11.2914
      vertex 12.0498 10 11.299
    endloop
  endfacet
  facet normal 0 -1 0
    outer loop
      vertex 4 10 20
      vertex 11.6555 10 11.2535
      vertex 11.8509 10 11.2914
    endloop
  endfacet
  facet normal 0 -1 0
    outer loop
      vertex 4 10 20
      vertex 11.4682 10 11.1863
      vertex 11.6555 10 11.2535
    endloop
  endfacet
  facet normal 0 -1 0
    outer loop
      vertex 4 10 20
      vertex 11.2934 10 11.0912
      vertex 11.4682 10 11.1863
    endloop
  endfacet
  facet normal 0 -1 0
    outer loop
      vertex 4 10 20
      vertex 11.1351 10 10.9705
      vertex 11.2934 10 11.0912
    endloop
  endfacet
  facet normal 0 -1 0
    outer loop
      vertex 4 10 20
      vertex 10.9971 10 10.8271
      vertex 11.1351 10 10.9705
    endloop
  endfacet
  facet normal 0 -1 0
    outer loop
      vertex 4 10 20
      vertex 10.8826 10 10.6643
      vertex 10.9971 10 10.8271
    endloop
  endfacet
  facet normal 0 -1 0
    outer loop
      vertex 4 10 20
      vertex 10.7942 10 10.486
      vertex 10.8826 10 10.6643
    endloop
  endfacet
  facet normal 0 -1 0
    outer loop
      vertex 4 10 20
      vertex 10.7342 10 10.2962
      vertex 10.7942 10 10.486
    endloop
  endfacet
  facet normal 0 -1 0
    outer loop
      vertex 4 10 20
      vertex 10.7038 10 10.0995
      vertex 10.7342 10 10.2962
    endloop
  endfacet
  facet normal 0 -1 0
    outer loop
      vertex 4 10 20
      vertex 10.7038 10 9.90049
      vertex 10.7038 10 10.0995
    endloop
  endfacet
  facet normal 0 -1 0
    outer loop
      vertex 4 10 0
      vertex 10.7038 10 9.90049
      vertex 4 10 20
    endloop
  endfacet
  facet normal 0 -1 -0
    outer loop
      vertex 10.7038 10 9.90049
      vertex 4 10 0
      vertex 10.7342 10 9.70379
    endloop
  endfacet
  facet normal 0 -1 -0
    outer loop
      vertex 10.7342 10 9.70379
      vertex 4 10 0
      vertex 10.7942 10 9.51404
    endloop
  endfacet
  facet normal 0 -1 0
    outer loop
      vertex 18 10 0
      vertex 11.8509 10 8.70858
      vertex 4 10 0
    endloop
  endfacet
  facet normal 0 -1 -0
    outer loop
      vertex 11.6555 10 8.74647
      vertex 4 10 0
      vertex 11.8509 10 8.70858
    endloop
  endfacet
  facet normal 0 -1 -0
    outer loop
      vertex 11.4682 10 8.81374
      vertex 4 10 0
      vertex 11.6555 10 8.74647
    endloop
  endfacet
  facet normal 0 -1 -0
    outer loop
      vertex 11.2934 10 8.90882
      vertex 4 10 0
      vertex 11.4682 10 8.81374
    endloop
  endfacet
  facet normal 0 -1 -0
    outer loop
      vertex 11.1351 10 9.02948
      vertex 4 10 0
      vertex 11.2934 10 8.90882
    endloop
  endfacet
  facet normal 0 -1 -0
    outer loop
      vertex 10.9971 10 9.17288
      vertex 4 10 0
      vertex 11.1351 10 9.02948
    endloop
  endfacet
  facet normal 0 -1 -0
    outer loop
      vertex 10.8826 10 9.33568
      vertex 4 10 0
      vertex 10.9971 10 9.17288
    endloop
  endfacet
  facet normal 0 -1 -0
    outer loop
      vertex 10.7942 10 9.51404
      vertex 4 10 0
      vertex 10.8826 10 9.33568
    endloop
  endfacet
  facet normal 0 -1 0
    outer loop
      vertex 12.2475 10 11.2762
      vertex 18 10 20
      vertex 12.0498 10 11.299
    endloop
  endfacet
  facet normal 0 -1 0
    outer loop
      vertex 12.4394 10 11.2235
      vertex 18 10 20
      vertex 12.2475 10 11.2762
    endloop
  endfacet
  facet normal 0 -1 0
    outer loop
      vertex 12.621 10 11.1421
      vertex 18 10 20
      vertex 12.4394 10 11.2235
    endloop
  endfacet
  facet normal 0 -1 0
    outer loop
      vertex 12.7881 10 11.0339
      vertex 18 10 20
      vertex 12.621 10 11.1421
    endloop
  endfacet
  facet normal 0 -1 0
    outer loop
      vertex 12.9367 10 10.9015
      vertex 18 10 20
      vertex 12.7881 10 11.0339
    endloop
  endfacet
  facet normal 0 -1 0
    outer loop
      vertex 13.0633 10 10.7479
      vertex 18 10 20
      vertex 12.9367 10 10.9015
    endloop
  endfacet
  facet normal 0 -1 0
    outer loop
      vertex 13.165 10 10.5768
      vertex 18 10 20
      vertex 13.0633 10 10.7479
    endloop
  endfacet
  facet normal 0 -1 0
    outer loop
      vertex 13.2394 10 10.3922
      vertex 18 10 20
      vertex 13.165 10 10.5768
    endloop
  endfacet
  facet normal 0 -1 0
    outer loop
      vertex 13.2848 10 10.1984
      vertex 18 10 20
      vertex 13.2394 10 10.3922
    endloop
  endfacet
  facet normal 0 -1 0
    outer loop
      vertex 13.3 10 10
      vertex 18 10 20
      vertex 13.2848 10 10.1984
    endloop
  endfacet
  facet normal 0 -1 0
    outer loop
      vertex 18 10 0
      vertex 13.3 10 10
      vertex 13.2848 10 9.80156
    endloop
  endfacet
  facet normal 0 -1 0
    outer loop
      vertex 18 10 0
      vertex 13.2848 10 9.80156
      vertex 13.2394 10 9.60776
    endloop
  endfacet
  facet normal 0 -1 0
    outer loop
      vertex 18 10 0
      vertex 13.2394 10 9.60776
      vertex 13.165 10 9.42316
    endloop
  endfacet
  facet normal 0 -1 0
    outer loop
      vertex 11.8509 10 8.70858
      vertex 18 10 0
      vertex 12.0498 10 8.70095
    endloop
  endfacet
  facet normal 0 -1 0
    outer loop
      vertex 12.0498 10 8.70095
      vertex 18 10 0
      vertex 12.2475 10 8.72378
    endloop
  endfacet
  facet normal 0 -1 0
    outer loop
      vertex 12.2475 10 8.72378
      vertex 18 10 0
      vertex 12.4394 10 8.77652
    endloop
  endfacet
  facet normal 0 -1 0
    outer loop
      vertex 12.4394 10 8.77652
      vertex 18 10 0
      vertex 12.621 10 8.85793
    endloop
  endfacet
  facet normal 0 -1 0
    outer loop
      vertex 12.621 10 8.85793
      vertex 18 10 0
      vertex 12.7881 10 8.96612
    endloop
  endfacet
  facet normal 0 -1 0
    outer loop
      vertex 13.3 10 10
      vertex 18 10 0
      vertex 18 10 20
    endloop
  endfacet
  facet normal 0 -1 0
    outer loop
      vertex 13.0633 10 9.25209
      vertex 18 10 0
      vertex 13.165 10 9.42316
    endloop
  endfacet
  facet normal 0 -1 0
    outer loop
      vertex 12.9367 10 9.09854
      vertex 18 10 0
      vertex 13.0633 10 9.25209
    endloop
  endfacet
  facet normal 0 -1 0
    outer loop
      vertex 12.7881 10 8.96612
      vertex 18 10 0
      vertex 12.9367 10 9.09854
    endloop
  endfacet
  facet normal -0.984833 0 0.173505
    outer loop
      vertex 25.6542 0 9.60795
      vertex 25.6885 4 9.80264
      vertex 25.6542 4 9.60795
    endloop
  endfacet
  facet normal -0.984833 0 0.173505
    outer loop
      vertex 25.6885 4 9.80264
      vertex 25.6542 0 9.60795
      vertex 25.6885 0 9.80264
    endloop
  endfacet
  facet normal -0.998307 0 0.0581705
    outer loop
      vertex 25.6885 0 9.80264
      vertex 25.7 4 10
      vertex 25.6885 4 9.80264
    endloop
  endfacet
  facet normal -0.998307 0 0.0581705
    outer loop
      vertex 25.7 4 10
      vertex 25.6885 0 9.80264
      vertex 25.7 0 10
    endloop
  endfacet
  facet normal -0.549319 0 -0.835613
    outer loop
      vertex 24.85 0 11.4722
      vertex 25.0152 4 11.3636
      vertex 25.0152 0 11.3636
    endloop
  endfacet
  facet normal -0.549319 0 -0.835613
    outer loop
      vertex 25.0152 4 11.3636
      vertex 24.85 0 11.4722
      vertex 24.85 4 11.4722
    endloop
  endfacet
  facet normal -0.957993 0 -0.286791
    outer loop
      vertex 25.6542 0 10.392
      vertex 25.5975 4 10.5814
      vertex 25.6542 4 10.392
    endloop
  endfacet
  facet normal -0.957993 -0 -0.286791
    outer loop
      vertex 25.5975 4 10.5814
      vertex 25.6542 0 10.392
      vertex 25.5975 0 10.5814
    endloop
  endfacet
  facet normal 0.727294 0 -0.686326
    outer loop
      vertex 22.8334 0 11.2365
      vertex 22.6977 4 11.0927
      vertex 22.8334 4 11.2365
    endloop
  endfacet
  facet normal 0.727294 0 -0.686326
    outer loop
      vertex 22.6977 4 11.0927
      vertex 22.8334 0 11.2365
      vertex 22.6977 0 11.0927
    endloop
  endfacet
  facet normal -0.984819 0 -0.173583
    outer loop
      vertex 25.6885 0 10.1974
      vertex 25.6542 4 10.392
      vertex 25.6885 4 10.1974
    endloop
  endfacet
  facet normal -0.984819 -0 -0.173583
    outer loop
      vertex 25.6542 4 10.392
      vertex 25.6885 0 10.1974
      vertex 25.6542 0 10.392
    endloop
  endfacet
  facet normal -0.998307 0 -0.0581587
    outer loop
      vertex 25.7 0 10
      vertex 25.6885 4 10.1974
      vertex 25.7 4 10
    endloop
  endfacet
  facet normal -0.998307 -0 -0.0581587
    outer loop
      vertex 25.6885 4 10.1974
      vertex 25.7 0 10
      vertex 25.6885 0 10.1974
    endloop
  endfacet
  facet normal -0.642878 0 0.765969
    outer loop
      vertex 25.0152 4 8.63639
      vertex 25.1666 0 8.76346
      vertex 25.1666 4 8.76346
    endloop
  endfacet
  facet normal -0.642878 0 0.765969
    outer loop
      vertex 25.1666 0 8.76346
      vertex 25.0152 4 8.63639
      vertex 25.0152 0 8.63639
    endloop
  endfacet
  facet normal -0.727294 0 0.686326
    outer loop
      vertex 25.1666 0 8.76346
      vertex 25.3023 4 8.90726
      vertex 25.1666 4 8.76346
    endloop
  endfacet
  facet normal -0.727294 0 0.686326
    outer loop
      vertex 25.3023 4 8.90726
      vertex 25.1666 0 8.76346
      vertex 25.3023 0 8.90726
    endloop
  endfacet
  facet normal -0.957985 0 0.286819
    outer loop
      vertex 25.5975 0 9.41857
      vertex 25.6542 4 9.60795
      vertex 25.5975 4 9.41857
    endloop
  endfacet
  facet normal -0.957985 0 0.286819
    outer loop
      vertex 25.6542 4 9.60795
      vertex 25.5975 0 9.41857
      vertex 25.6542 0 9.60795
    endloop
  endfacet
  facet normal -0 0 1
    outer loop
      vertex 23.9012 4 8.30288
      vertex 24.0988 0 8.30288
      vertex 24.0988 4 8.30288
    endloop
  endfacet
  facet normal 0 0 1
    outer loop
      vertex 24.0988 0 8.30288
      vertex 23.9012 4 8.30288
      vertex 23.9012 0 8.30288
    endloop
  endfacet
  facet normal 0.642878 0 0.765969
    outer loop
      vertex 22.8334 4 8.76346
      vertex 22.9848 0 8.63639
      vertex 22.9848 4 8.63639
    endloop
  endfacet
  facet normal 0.642878 0 0.765969
    outer loop
      vertex 22.9848 0 8.63639
      vertex 22.8334 4 8.76346
      vertex 22.8334 0 8.76346
    endloop
  endfacet
  facet normal 0.230618 0 -0.973044
    outer loop
      vertex 23.5124 0 11.6286
      vertex 23.7048 4 11.6742
      vertex 23.7048 0 11.6742
    endloop
  endfacet
  facet normal 0.230618 0 -0.973044
    outer loop
      vertex 23.7048 4 11.6742
      vertex 23.5124 0 11.6286
      vertex 23.5124 4 11.6286
    endloop
  endfacet
  facet normal 0.23057 0 0.973056
    outer loop
      vertex 23.5124 4 8.37142
      vertex 23.7048 0 8.32583
      vertex 23.7048 4 8.32583
    endloop
  endfacet
  facet normal 0.23057 0 0.973056
    outer loop
      vertex 23.7048 0 8.32583
      vertex 23.5124 4 8.37142
      vertex 23.5124 0 8.37142
    endloop
  endfacet
  facet normal -0.115814 0 -0.993271
    outer loop
      vertex 24.0988 0 11.6971
      vertex 24.2952 4 11.6742
      vertex 24.2952 0 11.6742
    endloop
  endfacet
  facet normal -0.115814 0 -0.993271
    outer loop
      vertex 24.2952 4 11.6742
      vertex 24.0988 0 11.6971
      vertex 24.0988 4 11.6971
    endloop
  endfacet
  facet normal -0.549425 0 0.835543
    outer loop
      vertex 24.85 4 8.52776
      vertex 25.0152 0 8.63639
      vertex 25.0152 4 8.63639
    endloop
  endfacet
  facet normal -0.549425 0 0.835543
    outer loop
      vertex 25.0152 0 8.63639
      vertex 24.85 4 8.52776
      vertex 24.85 0 8.52776
    endloop
  endfacet
  facet normal -0.642967 0 -0.765894
    outer loop
      vertex 25.0152 0 11.3636
      vertex 25.1666 4 11.2365
      vertex 25.1666 0 11.2365
    endloop
  endfacet
  facet normal -0.642967 0 -0.765894
    outer loop
      vertex 25.1666 4 11.2365
      vertex 25.0152 0 11.3636
      vertex 25.0152 4 11.3636
    endloop
  endfacet
  facet normal -0.865912 0 0.500197
    outer loop
      vertex 25.4203 0 9.06583
      vertex 25.5192 4 9.23704
      vertex 25.4203 4 9.06583
    endloop
  endfacet
  facet normal -0.865912 0 0.500197
    outer loop
      vertex 25.5192 4 9.23704
      vertex 25.4203 0 9.06583
      vertex 25.5192 0 9.23704
    endloop
  endfacet
  facet normal 0.342068 0 -0.939675
    outer loop
      vertex 23.3267 0 11.561
      vertex 23.5124 4 11.6286
      vertex 23.5124 0 11.6286
    endloop
  endfacet
  facet normal 0.342068 0 -0.939675
    outer loop
      vertex 23.5124 4 11.6286
      vertex 23.3267 0 11.561
      vertex 23.3267 4 11.561
    endloop
  endfacet
  facet normal 0.115814 0 -0.993271
    outer loop
      vertex 23.7048 0 11.6742
      vertex 23.9012 4 11.6971
      vertex 23.9012 0 11.6971
    endloop
  endfacet
  facet normal 0.115814 0 -0.993271
    outer loop
      vertex 23.9012 4 11.6971
      vertex 23.7048 0 11.6742
      vertex 23.7048 4 11.6742
    endloop
  endfacet
  facet normal 0.865899 0 -0.500219
    outer loop
      vertex 22.5797 0 10.9342
      vertex 22.4808 4 10.763
      vertex 22.5797 4 10.9342
    endloop
  endfacet
  facet normal 0.865899 0 -0.500219
    outer loop
      vertex 22.4808 4 10.763
      vertex 22.5797 0 10.9342
      vertex 22.4808 0 10.763
    endloop
  endfacet
  facet normal -0.342068 0 -0.939675
    outer loop
      vertex 24.4876 0 11.6286
      vertex 24.6733 4 11.561
      vertex 24.6733 0 11.561
    endloop
  endfacet
  facet normal -0.342068 0 -0.939675
    outer loop
      vertex 24.6733 4 11.561
      vertex 24.4876 0 11.6286
      vertex 24.4876 4 11.6286
    endloop
  endfacet
  facet normal 0.549425 0 0.835543
    outer loop
      vertex 22.9848 4 8.63639
      vertex 23.15 0 8.52776
      vertex 23.15 4 8.52776
    endloop
  endfacet
  facet normal 0.549425 0 0.835543
    outer loop
      vertex 23.15 0 8.52776
      vertex 22.9848 4 8.63639
      vertex 22.9848 0 8.63639
    endloop
  endfacet
  facet normal 0.998307 -0 0.0581705
    outer loop
      vertex 22.3 0 10
      vertex 22.3115 4 9.80264
      vertex 22.3 4 10
    endloop
  endfacet
  facet normal 0.998307 0 0.0581705
    outer loop
      vertex 22.3115 4 9.80264
      vertex 22.3 0 10
      vertex 22.3115 0 9.80264
    endloop
  endfacet
  facet normal 0.802247 -0 0.596993
    outer loop
      vertex 22.5797 0 9.06583
      vertex 22.6977 4 8.90726
      vertex 22.5797 4 9.06583
    endloop
  endfacet
  facet normal 0.802247 0 0.596993
    outer loop
      vertex 22.6977 4 8.90726
      vertex 22.5797 0 9.06583
      vertex 22.6977 0 8.90726
    endloop
  endfacet
  facet normal -0.44875 0 0.893657
    outer loop
      vertex 24.6733 4 8.43903
      vertex 24.85 0 8.52776
      vertex 24.85 4 8.52776
    endloop
  endfacet
  facet normal -0.44875 0 0.893657
    outer loop
      vertex 24.85 0 8.52776
      vertex 24.6733 4 8.43903
      vertex 24.6733 0 8.43903
    endloop
  endfacet
  facet normal 0.44875 0 0.893657
    outer loop
      vertex 23.15 4 8.52776
      vertex 23.3267 0 8.43903
      vertex 23.3267 4 8.43903
    endloop
  endfacet
  facet normal 0.44875 0 0.893657
    outer loop
      vertex 23.3267 0 8.43903
      vertex 23.15 4 8.52776
      vertex 23.15 0 8.52776
    endloop
  endfacet
  facet normal 0.91828 0 -0.395932
    outer loop
      vertex 22.4808 0 10.763
      vertex 22.4025 4 10.5814
      vertex 22.4808 4 10.763
    endloop
  endfacet
  facet normal 0.91828 0 -0.395932
    outer loop
      vertex 22.4025 4 10.5814
      vertex 22.4808 0 10.763
      vertex 22.4025 0 10.5814
    endloop
  endfacet
  facet normal 0.116064 0 0.993242
    outer loop
      vertex 23.7048 4 8.32583
      vertex 23.9012 0 8.30288
      vertex 23.9012 4 8.30288
    endloop
  endfacet
  facet normal 0.116064 0 0.993242
    outer loop
      vertex 23.9012 0 8.30288
      vertex 23.7048 4 8.32583
      vertex 23.7048 0 8.32583
    endloop
  endfacet
  facet normal -0.865899 0 -0.500219
    outer loop
      vertex 25.5192 0 10.763
      vertex 25.4203 4 10.9342
      vertex 25.5192 4 10.763
    endloop
  endfacet
  facet normal -0.865899 -0 -0.500219
    outer loop
      vertex 25.4203 4 10.9342
      vertex 25.5192 0 10.763
      vertex 25.4203 0 10.9342
    endloop
  endfacet
  facet normal -0.449033 0 -0.893515
    outer loop
      vertex 24.6733 0 11.561
      vertex 24.85 4 11.4722
      vertex 24.85 0 11.4722
    endloop
  endfacet
  facet normal -0.449033 0 -0.893515
    outer loop
      vertex 24.85 4 11.4722
      vertex 24.6733 0 11.561
      vertex 24.6733 4 11.561
    endloop
  endfacet
  facet normal 0.342113 0 0.939659
    outer loop
      vertex 23.3267 4 8.43903
      vertex 23.5124 0 8.37142
      vertex 23.5124 4 8.37142
    endloop
  endfacet
  facet normal 0.342113 0 0.939659
    outer loop
      vertex 23.5124 0 8.37142
      vertex 23.3267 4 8.43903
      vertex 23.3267 0 8.43903
    endloop
  endfacet
  facet normal -0.918224 0 0.396061
    outer loop
      vertex 25.5192 0 9.23704
      vertex 25.5975 4 9.41857
      vertex 25.5192 4 9.23704
    endloop
  endfacet
  facet normal -0.918224 0 0.396061
    outer loop
      vertex 25.5975 4 9.41857
      vertex 25.5192 0 9.23704
      vertex 25.5975 0 9.41857
    endloop
  endfacet
  facet normal -0.727294 0 -0.686326
    outer loop
      vertex 25.3023 0 11.0927
      vertex 25.1666 4 11.2365
      vertex 25.3023 4 11.0927
    endloop
  endfacet
  facet normal -0.727294 -0 -0.686326
    outer loop
      vertex 25.1666 4 11.2365
      vertex 25.3023 0 11.0927
      vertex 25.1666 0 11.2365
    endloop
  endfacet
  facet normal 0 0 -1
    outer loop
      vertex 23.9012 0 11.6971
      vertex 24.0988 4 11.6971
      vertex 24.0988 0 11.6971
    endloop
  endfacet
  facet normal -0 0 -1
    outer loop
      vertex 24.0988 4 11.6971
      vertex 23.9012 0 11.6971
      vertex 23.9012 4 11.6971
    endloop
  endfacet
  facet normal 0.984833 -0 0.173505
    outer loop
      vertex 22.3115 0 9.80264
      vertex 22.3458 4 9.60795
      vertex 22.3115 4 9.80264
    endloop
  endfacet
  facet normal 0.984833 0 0.173505
    outer loop
      vertex 22.3458 4 9.60795
      vertex 22.3115 0 9.80264
      vertex 22.3458 0 9.60795
    endloop
  endfacet
  facet normal 0.727294 -0 0.686326
    outer loop
      vertex 22.6977 0 8.90726
      vertex 22.8334 4 8.76346
      vertex 22.6977 4 8.90726
    endloop
  endfacet
  facet normal 0.727294 0 0.686326
    outer loop
      vertex 22.8334 4 8.76346
      vertex 22.6977 0 8.90726
      vertex 22.8334 0 8.76346
    endloop
  endfacet
  facet normal 0.80212 0 -0.597162
    outer loop
      vertex 22.6977 0 11.0927
      vertex 22.5797 4 10.9342
      vertex 22.6977 4 11.0927
    endloop
  endfacet
  facet normal 0.80212 0 -0.597162
    outer loop
      vertex 22.5797 4 10.9342
      vertex 22.6977 0 11.0927
      vertex 22.5797 0 10.9342
    endloop
  endfacet
  facet normal 0.998307 0 -0.0581587
    outer loop
      vertex 22.3115 0 10.1974
      vertex 22.3 4 10
      vertex 22.3115 4 10.1974
    endloop
  endfacet
  facet normal 0.998307 0 -0.0581587
    outer loop
      vertex 22.3 4 10
      vertex 22.3115 0 10.1974
      vertex 22.3 0 10
    endloop
  endfacet
  facet normal -0.342113 0 0.939659
    outer loop
      vertex 24.4876 4 8.37142
      vertex 24.6733 0 8.43903
      vertex 24.6733 4 8.43903
    endloop
  endfacet
  facet normal -0.342113 0 0.939659
    outer loop
      vertex 24.6733 0 8.43903
      vertex 24.4876 4 8.37142
      vertex 24.4876 0 8.37142
    endloop
  endfacet
  facet normal 0.918224 -0 0.396061
    outer loop
      vertex 22.4025 0 9.41857
      vertex 22.4808 4 9.23704
      vertex 22.4025 4 9.41857
    endloop
  endfacet
  facet normal 0.918224 0 0.396061
    outer loop
      vertex 22.4808 4 9.23704
      vertex 22.4025 0 9.41857
      vertex 22.4808 0 9.23704
    endloop
  endfacet
  facet normal -0.80212 0 -0.597162
    outer loop
      vertex 25.4203 0 10.9342
      vertex 25.3023 4 11.0927
      vertex 25.4203 4 10.9342
    endloop
  endfacet
  facet normal -0.80212 -0 -0.597162
    outer loop
      vertex 25.3023 4 11.0927
      vertex 25.4203 0 10.9342
      vertex 25.3023 0 11.0927
    endloop
  endfacet
  facet normal -0.91828 0 -0.395932
    outer loop
      vertex 25.5975 0 10.5814
      vertex 25.5192 4 10.763
      vertex 25.5975 4 10.5814
    endloop
  endfacet
  facet normal -0.91828 -0 -0.395932
    outer loop
      vertex 25.5192 4 10.763
      vertex 25.5975 0 10.5814
      vertex 25.5192 0 10.763
    endloop
  endfacet
  facet normal -0.23057 0 0.973056
    outer loop
      vertex 24.2952 4 8.32583
      vertex 24.4876 0 8.37142
      vertex 24.4876 4 8.37142
    endloop
  endfacet
  facet normal -0.23057 0 0.973056
    outer loop
      vertex 24.4876 0 8.37142
      vertex 24.2952 4 8.32583
      vertex 24.2952 0 8.32583
    endloop
  endfacet
  facet normal 0.642967 0 -0.765894
    outer loop
      vertex 22.8334 0 11.2365
      vertex 22.9848 4 11.3636
      vertex 22.9848 0 11.3636
    endloop
  endfacet
  facet normal 0.642967 0 -0.765894
    outer loop
      vertex 22.9848 4 11.3636
      vertex 22.8334 0 11.2365
      vertex 22.8334 4 11.2365
    endloop
  endfacet
  facet normal -0.802247 0 0.596993
    outer loop
      vertex 25.3023 0 8.90726
      vertex 25.4203 4 9.06583
      vertex 25.3023 4 8.90726
    endloop
  endfacet
  facet normal -0.802247 0 0.596993
    outer loop
      vertex 25.4203 4 9.06583
      vertex 25.3023 0 8.90726
      vertex 25.4203 0 9.06583
    endloop
  endfacet
  facet normal 0.957993 0 -0.286791
    outer loop
      vertex 22.4025 0 10.5814
      vertex 22.3458 4 10.392
      vertex 22.4025 4 10.5814
    endloop
  endfacet
  facet normal 0.957993 0 -0.286791
    outer loop
      vertex 22.3458 4 10.392
      vertex 22.4025 0 10.5814
      vertex 22.3458 0 10.392
    endloop
  endfacet
  facet normal 0.984819 0 -0.173583
    outer loop
      vertex 22.3458 0 10.392
      vertex 22.3115 4 10.1974
      vertex 22.3458 4 10.392
    endloop
  endfacet
  facet normal 0.984819 0 -0.173583
    outer loop
      vertex 22.3115 4 10.1974
      vertex 22.3458 0 10.392
      vertex 22.3115 0 10.1974
    endloop
  endfacet
  facet normal 0.865912 -0 0.500197
    outer loop
      vertex 22.4808 0 9.23704
      vertex 22.5797 4 9.06583
      vertex 22.4808 4 9.23704
    endloop
  endfacet
  facet normal 0.865912 0 0.500197
    outer loop
      vertex 22.5797 4 9.06583
      vertex 22.4808 0 9.23704
      vertex 22.5797 0 9.06583
    endloop
  endfacet
  facet normal 0.957985 -0 0.286819
    outer loop
      vertex 22.3458 0 9.60795
      vertex 22.4025 4 9.41857
      vertex 22.3458 4 9.60795
    endloop
  endfacet
  facet normal 0.957985 0 0.286819
    outer loop
      vertex 22.4025 4 9.41857
      vertex 22.3458 0 9.60795
      vertex 22.4025 0 9.41857
    endloop
  endfacet
  facet normal -0.230618 0 -0.973044
    outer loop
      vertex 24.2952 0 11.6742
      vertex 24.4876 4 11.6286
      vertex 24.4876 0 11.6286
    endloop
  endfacet
  facet normal -0.230618 0 -0.973044
    outer loop
      vertex 24.4876 4 11.6286
      vertex 24.2952 0 11.6742
      vertex 24.2952 4 11.6742
    endloop
  endfacet
  facet normal -0.116064 0 0.993242
    outer loop
      vertex 24.0988 4 8.30288
      vertex 24.2952 0 8.32583
      vertex 24.2952 4 8.32583
    endloop
  endfacet
  facet normal -0.116064 0 0.993242
    outer loop
      vertex 24.2952 0 8.32583
      vertex 24.0988 4 8.30288
      vertex 24.0988 0 8.30288
    endloop
  endfacet
  facet normal 0.549319 0 -0.835613
    outer loop
      vertex 22.9848 0 11.3636
      vertex 23.15 4 11.4722
      vertex 23.15 0 11.4722
    endloop
  endfacet
  facet normal 0.549319 0 -0.835613
    outer loop
      vertex 23.15 4 11.4722
      vertex 22.9848 0 11.3636
      vertex 22.9848 4 11.3636
    endloop
  endfacet
  facet normal 0.449033 0 -0.893515
    outer loop
      vertex 23.15 0 11.4722
      vertex 23.3267 4 11.561
      vertex 23.3267 0 11.561
    endloop
  endfacet
  facet normal 0.449033 0 -0.893515
    outer loop
      vertex 23.3267 4 11.561
      vertex 23.15 0 11.4722
      vertex 23.15 4 11.4722
    endloop
  endfacet
  facet normal -0.114567 0 -0.993416
    outer loop
      vertex 12.0498 10 11.299
      vertex 12.2475 14 11.2762
      vertex 12.2475 10 11.2762
    endloop
  endfacet
  facet normal -0.114567 0 -0.993416
    outer loop
      vertex 12.2475 14 11.2762
      vertex 12.0498 10 11.299
      vertex 12.0498 14 11.299
    endloop
  endfacet
  facet normal -0.973641 0 0.228087
    outer loop
      vertex 13.2394 10 9.60776
      vertex 13.2848 14 9.80156
      vertex 13.2394 14 9.60776
    endloop
  endfacet
  facet normal -0.973641 0 0.228087
    outer loop
      vertex 13.2848 14 9.80156
      vertex 13.2394 10 9.60776
      vertex 13.2848 10 9.80156
    endloop
  endfacet
  facet normal -0.997079 0 0.0763737
    outer loop
      vertex 13.2848 10 9.80156
      vertex 13.3 14 10
      vertex 13.2848 14 9.80156
    endloop
  endfacet
  facet normal -0.997079 0 0.0763737
    outer loop
      vertex 13.3 14 10
      vertex 13.2848 10 9.80156
      vertex 13.3 10 10
    endloop
  endfacet
  facet normal -0.927503 0 0.373815
    outer loop
      vertex 13.165 10 9.42316
      vertex 13.2394 14 9.60776
      vertex 13.165 14 9.42316
    endloop
  endfacet
  facet normal -0.927503 0 0.373815
    outer loop
      vertex 13.2394 14 9.60776
      vertex 13.165 10 9.42316
      vertex 13.2394 10 9.60776
    endloop
  endfacet
  facet normal 0.477824 0 0.878456
    outer loop
      vertex 11.2934 14 8.90882
      vertex 11.4682 10 8.81374
      vertex 11.4682 14 8.81374
    endloop
  endfacet
  facet normal 0.477824 0 0.878456
    outer loop
      vertex 11.4682 10 8.81374
      vertex 11.2934 14 8.90882
      vertex 11.2934 10 8.90882
    endloop
  endfacet
  facet normal 0.895989 -0 0.444076
    outer loop
      vertex 10.7942 10 9.51404
      vertex 10.8826 14 9.33568
      vertex 10.7942 14 9.51404
    endloop
  endfacet
  facet normal 0.895989 0 0.444076
    outer loop
      vertex 10.8826 14 9.33568
      vertex 10.7942 10 9.51404
      vertex 10.8826 10 9.33568
    endloop
  endfacet
  facet normal 0.338017 0 0.94114
    outer loop
      vertex 11.4682 14 8.81374
      vertex 11.6555 10 8.74647
      vertex 11.6555 14 8.74647
    endloop
  endfacet
  facet normal 0.338017 0 0.94114
    outer loop
      vertex 11.6555 10 8.74647
      vertex 11.4682 14 8.81374
      vertex 11.4682 10 8.81374
    endloop
  endfacet
  facet normal -0.665293 0 0.746583
    outer loop
      vertex 12.7881 14 8.96612
      vertex 12.9367 10 9.09854
      vertex 12.9367 14 9.09854
    endloop
  endfacet
  facet normal -0.665293 0 0.746583
    outer loop
      vertex 12.9367 10 9.09854
      vertex 12.7881 14 8.96612
      vertex 12.7881 10 8.96612
    endloop
  endfacet
  facet normal 0.817955 -0 0.575282
    outer loop
      vertex 10.8826 10 9.33568
      vertex 10.9971 14 9.17288
      vertex 10.8826 14 9.33568
    endloop
  endfacet
  facet normal 0.817955 0 0.575282
    outer loop
      vertex 10.9971 14 9.17288
      vertex 10.8826 10 9.33568
      vertex 10.9971 10 9.17288
    endloop
  endfacet
  facet normal 0.89593 0 -0.444196
    outer loop
      vertex 10.8826 10 10.6643
      vertex 10.7942 14 10.486
      vertex 10.8826 14 10.6643
    endloop
  endfacet
  facet normal 0.89593 0 -0.444196
    outer loop
      vertex 10.7942 14 10.486
      vertex 10.8826 10 10.6643
      vertex 10.7942 10 10.486
    endloop
  endfacet
  facet normal -0.114716 0 0.993398
    outer loop
      vertex 12.0498 14 8.70095
      vertex 12.2475 10 8.72378
      vertex 12.2475 14 8.72378
    endloop
  endfacet
  facet normal -0.114716 0 0.993398
    outer loop
      vertex 12.2475 10 8.72378
      vertex 12.0498 14 8.70095
      vertex 12.0498 10 8.70095
    endloop
  endfacet
  facet normal -0.543522 0 -0.839395
    outer loop
      vertex 12.621 10 11.1421
      vertex 12.7881 14 11.0339
      vertex 12.7881 10 11.0339
    endloop
  endfacet
  facet normal -0.543522 0 -0.839395
    outer loop
      vertex 12.7881 14 11.0339
      vertex 12.621 10 11.1421
      vertex 12.621 14 11.1421
    endloop
  endfacet
  facet normal -0.543487 0 0.839418
    outer loop
      vertex 12.621 14 8.85793
      vertex 12.7881 10 8.96612
      vertex 12.7881 14 8.96612
    endloop
  endfacet
  facet normal -0.543487 0 0.839418
    outer loop
      vertex 12.7881 10 8.96612
      vertex 12.621 14 8.85793
      vertex 12.621 10 8.85793
    endloop
  endfacet
  facet normal 0.0383328 0 0.999265
    outer loop
      vertex 11.8509 14 8.70858
      vertex 12.0498 10 8.70095
      vertex 12.0498 14 8.70095
    endloop
  endfacet
  facet normal 0.0383328 0 0.999265
    outer loop
      vertex 12.0498 10 8.70095
      vertex 11.8509 14 8.70858
      vertex 11.8509 10 8.70858
    endloop
  endfacet
  facet normal 0.988267 0 -0.152737
    outer loop
      vertex 10.7342 10 10.2962
      vertex 10.7038 14 10.0995
      vertex 10.7342 14 10.2962
    endloop
  endfacet
  facet normal 0.988267 0 -0.152737
    outer loop
      vertex 10.7038 14 10.0995
      vertex 10.7342 10 10.2962
      vertex 10.7038 10 10.0995
    endloop
  endfacet
  facet normal -0.771669 0 -0.636024
    outer loop
      vertex 13.0633 10 10.7479
      vertex 12.9367 14 10.9015
      vertex 13.0633 14 10.7479
    endloop
  endfacet
  facet normal -0.771669 -0 -0.636024
    outer loop
      vertex 12.9367 14 10.9015
      vertex 13.0633 10 10.7479
      vertex 12.9367 10 10.9015
    endloop
  endfacet
  facet normal 0.0381823 0 -0.999271
    outer loop
      vertex 11.8509 10 11.2914
      vertex 12.0498 14 11.299
      vertex 12.0498 10 11.299
    endloop
  endfacet
  facet normal 0.0381823 0 -0.999271
    outer loop
      vertex 12.0498 14 11.299
      vertex 11.8509 10 11.2914
      vertex 11.8509 14 11.2914
    endloop
  endfacet
  facet normal -0.665237 0 -0.746633
    outer loop
      vertex 12.7881 10 11.0339
      vertex 12.9367 14 10.9015
      vertex 12.9367 10 10.9015
    endloop
  endfacet
  facet normal -0.665237 0 -0.746633
    outer loop
      vertex 12.9367 14 10.9015
      vertex 12.7881 10 11.0339
      vertex 12.7881 14 11.0339
    endloop
  endfacet
  facet normal -0.997078 0 -0.076389
    outer loop
      vertex 13.3 10 10
      vertex 13.2848 14 10.1984
      vertex 13.3 14 10
    endloop
  endfacet
  facet normal -0.997078 -0 -0.076389
    outer loop
      vertex 13.2848 14 10.1984
      vertex 13.3 10 10
      vertex 13.2848 10 10.1984
    endloop
  endfacet
  facet normal -0.409069 0 0.912504
    outer loop
      vertex 12.4394 14 8.77652
      vertex 12.621 10 8.85793
      vertex 12.621 14 8.85793
    endloop
  endfacet
  facet normal -0.409069 0 0.912504
    outer loop
      vertex 12.621 10 8.85793
      vertex 12.4394 14 8.77652
      vertex 12.4394 10 8.77652
    endloop
  endfacet
  facet normal 0.720543 -0 0.69341
    outer loop
      vertex 10.9971 10 9.17288
      vertex 11.1351 14 9.02948
      vertex 10.9971 14 9.17288
    endloop
  endfacet
  facet normal 0.720543 0 0.69341
    outer loop
      vertex 11.1351 14 9.02948
      vertex 10.9971 10 9.17288
      vertex 11.1351 10 9.02948
    endloop
  endfacet
  facet normal -0.265005 0 0.964247
    outer loop
      vertex 12.2475 14 8.72378
      vertex 12.4394 10 8.77652
      vertex 12.4394 14 8.77652
    endloop
  endfacet
  facet normal -0.265005 0 0.964247
    outer loop
      vertex 12.4394 10 8.77652
      vertex 12.2475 14 8.72378
      vertex 12.2475 10 8.72378
    endloop
  endfacet
  facet normal -0.409027 0 -0.912522
    outer loop
      vertex 12.4394 10 11.2235
      vertex 12.621 14 11.1421
      vertex 12.621 10 11.1421
    endloop
  endfacet
  facet normal -0.409027 0 -0.912522
    outer loop
      vertex 12.621 14 11.1421
      vertex 12.4394 10 11.2235
      vertex 12.4394 14 11.2235
    endloop
  endfacet
  facet normal 0.988267 -0 0.152737
    outer loop
      vertex 10.7038 10 9.90049
      vertex 10.7342 14 9.70379
      vertex 10.7038 14 9.90049
    endloop
  endfacet
  facet normal 0.988267 0 0.152737
    outer loop
      vertex 10.7342 14 9.70379
      vertex 10.7038 10 9.90049
      vertex 10.7342 10 9.70379
    endloop
  endfacet
  facet normal 0.606331 0 -0.795213
    outer loop
      vertex 11.1351 10 10.9705
      vertex 11.2934 14 11.0912
      vertex 11.2934 10 11.0912
    endloop
  endfacet
  facet normal 0.606331 0 -0.795213
    outer loop
      vertex 11.2934 14 11.0912
      vertex 11.1351 10 10.9705
      vertex 11.1351 14 10.9705
    endloop
  endfacet
  facet normal 0.190364 0 0.981714
    outer loop
      vertex 11.6555 14 8.74647
      vertex 11.8509 10 8.70858
      vertex 11.8509 14 8.70858
    endloop
  endfacet
  facet normal 0.190364 0 0.981714
    outer loop
      vertex 11.8509 10 8.70858
      vertex 11.6555 14 8.74647
      vertex 11.6555 10 8.74647
    endloop
  endfacet
  facet normal -0.771567 0 0.636147
    outer loop
      vertex 12.9367 10 9.09854
      vertex 13.0633 14 9.25209
      vertex 12.9367 14 9.09854
    endloop
  endfacet
  facet normal -0.771567 0 0.636147
    outer loop
      vertex 13.0633 14 9.25209
      vertex 12.9367 10 9.09854
      vertex 13.0633 10 9.25209
    endloop
  endfacet
  facet normal 0.817955 0 -0.575282
    outer loop
      vertex 10.9971 10 10.8271
      vertex 10.8826 14 10.6643
      vertex 10.9971 14 10.8271
    endloop
  endfacet
  facet normal 0.817955 0 -0.575282
    outer loop
      vertex 10.8826 14 10.6643
      vertex 10.9971 10 10.8271
      vertex 10.8826 10 10.6643
    endloop
  endfacet
  facet normal -0.859574 0 0.511011
    outer loop
      vertex 13.0633 10 9.25209
      vertex 13.165 14 9.42316
      vertex 13.0633 14 9.25209
    endloop
  endfacet
  facet normal -0.859574 0 0.511011
    outer loop
      vertex 13.165 14 9.42316
      vertex 13.0633 10 9.25209
      vertex 13.165 10 9.42316
    endloop
  endfacet
  facet normal 0.720543 0 -0.69341
    outer loop
      vertex 11.1351 10 10.9705
      vertex 10.9971 14 10.8271
      vertex 11.1351 14 10.9705
    endloop
  endfacet
  facet normal 0.720543 0 -0.69341
    outer loop
      vertex 10.9971 14 10.8271
      vertex 11.1351 10 10.9705
      vertex 10.9971 10 10.8271
    endloop
  endfacet
  facet normal 0.606204 0 0.795309
    outer loop
      vertex 11.1351 14 9.02948
      vertex 11.2934 10 8.90882
      vertex 11.2934 14 8.90882
    endloop
  endfacet
  facet normal 0.606204 0 0.795309
    outer loop
      vertex 11.2934 10 8.90882
      vertex 11.1351 14 9.02948
      vertex 11.1351 10 9.02948
    endloop
  endfacet
  facet normal -0.859613 0 -0.510945
    outer loop
      vertex 13.165 10 10.5768
      vertex 13.0633 14 10.7479
      vertex 13.165 14 10.5768
    endloop
  endfacet
  facet normal -0.859613 -0 -0.510945
    outer loop
      vertex 13.0633 14 10.7479
      vertex 13.165 10 10.5768
      vertex 13.0633 10 10.7479
    endloop
  endfacet
  facet normal -0.264818 0 -0.964298
    outer loop
      vertex 12.2475 10 11.2762
      vertex 12.4394 14 11.2235
      vertex 12.4394 10 11.2235
    endloop
  endfacet
  facet normal -0.264818 0 -0.964298
    outer loop
      vertex 12.4394 14 11.2235
      vertex 12.2475 10 11.2762
      vertex 12.2475 14 11.2762
    endloop
  endfacet
  facet normal 0.190412 0 -0.981704
    outer loop
      vertex 11.6555 10 11.2535
      vertex 11.8509 14 11.2914
      vertex 11.8509 10 11.2914
    endloop
  endfacet
  facet normal 0.190412 0 -0.981704
    outer loop
      vertex 11.8509 14 11.2914
      vertex 11.6555 10 11.2535
      vertex 11.6555 14 11.2535
    endloop
  endfacet
  facet normal 0.477901 0 -0.878414
    outer loop
      vertex 11.2934 10 11.0912
      vertex 11.4682 14 11.1863
      vertex 11.4682 10 11.1863
    endloop
  endfacet
  facet normal 0.477901 0 -0.878414
    outer loop
      vertex 11.4682 14 11.1863
      vertex 11.2934 10 11.0912
      vertex 11.2934 14 11.0912
    endloop
  endfacet
  facet normal -0.927503 0 -0.373815
    outer loop
      vertex 13.2394 10 10.3922
      vertex 13.165 14 10.5768
      vertex 13.2394 14 10.3922
    endloop
  endfacet
  facet normal -0.927503 -0 -0.373815
    outer loop
      vertex 13.165 14 10.5768
      vertex 13.2394 10 10.3922
      vertex 13.165 10 10.5768
    endloop
  endfacet
  facet normal -0.973641 0 -0.228087
    outer loop
      vertex 13.2848 10 10.1984
      vertex 13.2394 14 10.3922
      vertex 13.2848 14 10.1984
    endloop
  endfacet
  facet normal -0.973641 -0 -0.228087
    outer loop
      vertex 13.2394 14 10.3922
      vertex 13.2848 10 10.1984
      vertex 13.2394 10 10.3922
    endloop
  endfacet
  facet normal 0.953492 0 -0.30142
    outer loop
      vertex 10.7942 10 10.486
      vertex 10.7342 14 10.2962
      vertex 10.7942 14 10.486
    endloop
  endfacet
  facet normal 0.953492 0 -0.30142
    outer loop
      vertex 10.7342 14 10.2962
      vertex 10.7942 10 10.486
      vertex 10.7342 10 10.2962
    endloop
  endfacet
  facet normal 1 -0 0
    outer loop
      vertex 10.7038 10 10.0995
      vertex 10.7038 14 9.90049
      vertex 10.7038 14 10.0995
    endloop
  endfacet
  facet normal 1 0 0
    outer loop
      vertex 10.7038 14 9.90049
      vertex 10.7038 10 10.0995
      vertex 10.7038 10 9.90049
    endloop
  endfacet
  facet normal 0.953469 -0 0.301492
    outer loop
      vertex 10.7342 10 9.70379
      vertex 10.7942 14 9.51404
      vertex 10.7342 14 9.70379
    endloop
  endfacet
  facet normal 0.953469 0 0.301492
    outer loop
      vertex 10.7942 14 9.51404
      vertex 10.7342 10 9.70379
      vertex 10.7942 10 9.51404
    endloop
  endfacet
  facet normal 0.337705 0 -0.941252
    outer loop
      vertex 11.4682 10 11.1863
      vertex 11.6555 14 11.2535
      vertex 11.6555 10 11.2535
    endloop
  endfacet
  facet normal 0.337705 0 -0.941252
    outer loop
      vertex 11.6555 14 11.2535
      vertex 11.4682 10 11.1863
      vertex 11.4682 14 11.1863
    endloop
  endfacet
endsolid OpenSCAD_Model
